<svg width="400" height="400" viewBox="0 0 400 400" fill="none" xmlns="http://www.w3.org/2000/svg">
<g clip-path="url(#clip0)">
<rect width="400" height="400" rx="8" fill="#D1FAE5"/>
<path d="M187.308 288.75C187.088 288.07 186.728 287.14 186.228 285.96C185.728 284.78 185.138 283.51 184.458 282.15L189.258 279L190.008 279.24C190.268 279.9 190.498 280.62 190.698 281.4C190.918 282.18 191.098 282.96 191.238 283.74C191.378 284.52 191.478 285.27 191.538 285.99C191.618 286.71 191.658 287.33 191.658 287.85C191.658 289.61 191.438 291.13 190.998 292.41C190.558 293.69 190.038 294.75 189.438 295.59C188.858 296.43 188.268 297.05 187.668 297.45C187.068 297.85 186.598 298.05 186.258 298.05C186.138 298.05 185.978 298.03 185.778 297.99C185.598 297.97 185.288 297.91 184.848 297.81C184.428 297.73 183.848 297.6 183.108 297.42C182.348 297.24 181.348 297 180.108 296.7V294C180.928 293.62 181.708 293.2 182.448 292.74C183.188 292.3 183.868 291.84 184.488 291.36C185.108 290.9 185.658 290.45 186.138 290.01C186.618 289.55 187.008 289.13 187.308 288.75ZM200.205 290.25C199.605 290.41 198.955 290.53 198.255 290.61C197.555 290.67 196.905 290.7 196.305 290.7C195.625 290.7 195.045 290.6 194.565 290.4C194.105 290.18 193.725 289.89 193.425 289.53C193.125 289.17 192.905 288.76 192.765 288.3C192.625 287.82 192.555 287.32 192.555 286.8C192.555 286.32 192.645 285.65 192.825 284.79C193.005 283.91 193.225 282.99 193.485 282.03C193.745 281.07 194.025 280.13 194.325 279.21C194.625 278.29 194.885 277.54 195.105 276.96L195.855 276.45C197.115 276.49 198.225 276.68 199.185 277.02C200.145 277.34 200.955 277.8 201.615 278.4C202.295 279 202.845 279.73 203.265 280.59C203.685 281.45 204.005 282.42 204.225 283.5H205.605V291H204.225C203.965 292.34 203.595 293.46 203.115 294.36C202.635 295.26 202.135 295.98 201.615 296.52C201.095 297.08 200.595 297.47 200.115 297.69C199.655 297.93 199.305 298.05 199.065 298.05C198.965 298.05 198.795 298.04 198.555 298.02C198.315 298.02 197.925 297.98 197.385 297.9C196.865 297.82 196.165 297.7 195.285 297.54C194.405 297.38 193.295 297.15 191.955 296.85V294C192.635 293.82 193.355 293.61 194.115 293.37C194.875 293.15 195.625 292.9 196.365 292.62C197.125 292.36 197.845 292.07 198.525 291.75C199.225 291.43 199.835 291.08 200.355 290.7L200.205 290.25ZM200.055 284.01C199.755 283.37 199.345 282.88 198.825 282.54C198.325 282.18 197.585 282 196.605 282L196.005 283.8C196.225 283.96 196.875 284.04 197.955 284.04C198.135 284.04 198.435 284.04 198.855 284.04C199.275 284.04 199.675 284.03 200.055 284.01ZM221.961 282.3C221.701 282.34 221.471 282.38 221.271 282.42C221.071 282.44 220.881 282.5 220.701 282.6C220.521 282.68 220.331 282.79 220.131 282.93C219.931 283.07 219.711 283.26 219.471 283.5H224.511V291H222.861C222.221 291 221.611 290.94 221.031 290.82C220.451 290.68 219.911 290.43 219.411 290.07C218.931 289.69 218.501 289.18 218.121 288.54C217.761 287.88 217.481 287.03 217.281 285.99C216.261 287.17 215.381 288.1 214.641 288.78C213.901 289.44 213.201 289.94 212.541 290.28C211.881 290.6 211.201 290.8 210.501 290.88C209.801 290.96 208.971 291 208.011 291H205.911C205.531 291 205.291 290.7 205.191 290.1C205.071 289.48 205.011 288.53 205.011 287.25C205.011 285.97 205.071 285.03 205.191 284.43C205.291 283.81 205.531 283.5 205.911 283.5H210.411C211.091 283.5 211.641 283.48 212.061 283.44C212.501 283.38 212.911 283.28 213.291 283.14C213.671 283 214.061 282.81 214.461 282.57C214.861 282.31 215.361 281.97 215.961 281.55C215.201 281.37 214.561 281.22 214.041 281.1C213.521 280.98 213.091 280.89 212.751 280.83C212.411 280.75 212.141 280.7 211.941 280.68C211.741 280.66 211.581 280.65 211.461 280.65C211.301 280.65 211.141 280.66 210.981 280.68C210.821 280.68 210.681 280.7 210.561 280.74V282.15L207.861 283.2L207.351 282.9C207.331 282.72 207.311 282.49 207.291 282.21C207.291 281.93 207.281 281.65 207.261 281.37C207.261 281.07 207.261 280.79 207.261 280.53C207.261 280.27 207.261 280.06 207.261 279.9C207.261 279.22 207.301 278.61 207.381 278.07C207.481 277.51 207.641 277.12 207.861 276.9C208.461 276.3 209.101 275.83 209.781 275.49C210.481 275.13 211.091 274.95 211.611 274.95C212.091 274.95 212.721 275.05 213.501 275.25C214.301 275.43 215.201 275.69 216.201 276.03C217.221 276.35 218.321 276.73 219.501 277.17C220.701 277.61 221.951 278.07 223.251 278.55L223.461 279.15L221.961 282.3ZM233.965 291C233.565 291 233.095 290.95 232.555 290.85C232.015 290.73 231.455 290.57 230.875 290.37C230.295 290.17 229.725 289.93 229.165 289.65C228.605 289.37 228.105 289.06 227.665 288.72C227.145 289.66 226.615 290.28 226.075 290.58C225.535 290.86 225.015 291 224.515 291C224.135 291 223.895 290.7 223.795 290.1C223.675 289.48 223.615 288.53 223.615 287.25C223.615 285.97 223.675 285.03 223.795 284.43C223.895 283.81 224.135 283.5 224.515 283.5C224.935 283.5 225.275 283.47 225.535 283.41C225.815 283.33 226.085 283.16 226.345 282.9C226.605 282.64 226.895 282.25 227.215 281.73C227.535 281.21 227.935 280.5 228.415 279.6C228.795 278.88 229.215 278.3 229.675 277.86C230.135 277.4 230.655 277.04 231.235 276.78C231.815 276.52 232.485 276.34 233.245 276.24C234.005 276.12 234.895 276.04 235.915 276L236.515 276.45C236.735 277.21 236.935 277.96 237.115 278.7C237.315 279.42 237.475 280.12 237.595 280.8C237.735 281.46 237.835 282.07 237.895 282.63C237.975 283.19 238.015 283.68 238.015 284.1C238.015 284.86 237.895 285.65 237.655 286.47C237.415 287.27 237.105 288.01 236.725 288.69C236.345 289.35 235.905 289.9 235.405 290.34C234.925 290.78 234.445 291 233.965 291ZM233.365 281.7C232.845 281.74 232.415 281.79 232.075 281.85C231.735 281.89 231.445 281.96 231.205 282.06C230.965 282.14 230.755 282.26 230.575 282.42C230.415 282.58 230.245 282.79 230.065 283.05C230.245 283.17 230.495 283.29 230.815 283.41C231.155 283.53 231.515 283.64 231.895 283.74C232.275 283.84 232.645 283.93 233.005 284.01C233.385 284.07 233.705 284.1 233.965 284.1C233.965 284.02 233.945 283.88 233.905 283.68C233.865 283.48 233.815 283.26 233.755 283.02C233.695 282.78 233.625 282.54 233.545 282.3C233.485 282.06 233.425 281.86 233.365 281.7ZM248.935 291C248.215 291 247.555 290.92 246.955 290.76C246.355 290.58 245.835 290.31 245.395 289.95C244.955 289.57 244.605 289.1 244.345 288.54C244.105 287.96 243.985 287.28 243.985 286.5C243.985 285.94 244.055 285.27 244.195 284.49C244.335 283.69 244.525 282.82 244.765 281.88C245.005 280.92 245.285 279.91 245.605 278.85C245.945 277.77 246.305 276.67 246.685 275.55L247.435 274.95C250.295 275.71 252.405 276.77 253.765 278.13C255.145 279.49 255.835 281.23 255.835 283.35C255.835 283.91 255.785 284.49 255.685 285.09C255.585 285.67 255.455 286.23 255.295 286.77C255.135 287.29 254.955 287.77 254.755 288.21C254.555 288.63 254.365 288.96 254.185 289.2C253.925 289.54 253.595 289.83 253.195 290.07C252.795 290.29 252.355 290.47 251.875 290.61C251.415 290.75 250.925 290.85 250.405 290.91C249.905 290.97 249.415 291 248.935 291ZM247.585 283.65C247.705 283.75 247.935 283.83 248.275 283.89C248.635 283.93 249.005 283.95 249.385 283.95C249.685 283.95 250.065 283.94 250.525 283.92C250.985 283.9 251.405 283.84 251.785 283.74C251.485 282.64 250.285 281.86 248.185 281.4L247.585 283.65ZM260.345 288.75C260.125 288.07 259.765 287.14 259.265 285.96C258.765 284.78 258.175 283.51 257.495 282.15L262.295 279L263.045 279.24C263.305 279.9 263.535 280.62 263.735 281.4C263.955 282.18 264.135 282.96 264.275 283.74C264.415 284.52 264.515 285.27 264.575 285.99C264.655 286.71 264.695 287.33 264.695 287.85C264.695 289.61 264.475 291.13 264.035 292.41C263.595 293.69 263.075 294.75 262.475 295.59C261.895 296.43 261.305 297.05 260.705 297.45C260.105 297.85 259.635 298.05 259.295 298.05C259.175 298.05 259.015 298.03 258.815 297.99C258.635 297.97 258.325 297.91 257.885 297.81C257.465 297.73 256.885 297.6 256.145 297.42C255.385 297.24 254.385 297 253.145 296.7V294C253.965 293.62 254.745 293.2 255.485 292.74C256.225 292.3 256.905 291.84 257.525 291.36C258.145 290.9 258.695 290.45 259.175 290.01C259.655 289.55 260.045 289.13 260.345 288.75ZM262.895 277.8L260.375 275.55L258.695 277.8H258.095L255.095 275.4L257.495 272.4H258.095L260.615 274.53L262.295 272.4H262.895L265.895 274.65L263.495 277.8H262.895ZM260.645 272.55H260.045L257.345 270.3L259.595 267.3H260.195L263.045 269.55L260.645 272.55ZM273.242 290.25C272.642 290.41 271.992 290.53 271.292 290.61C270.592 290.67 269.942 290.7 269.342 290.7C268.662 290.7 268.082 290.6 267.602 290.4C267.142 290.18 266.762 289.89 266.462 289.53C266.162 289.17 265.942 288.76 265.802 288.3C265.662 287.82 265.592 287.32 265.592 286.8C265.592 286.32 265.682 285.65 265.862 284.79C266.042 283.91 266.262 282.99 266.522 282.03C266.782 281.07 267.062 280.13 267.362 279.21C267.662 278.29 267.922 277.54 268.142 276.96L268.892 276.45C270.512 276.49 271.872 276.78 272.972 277.32C274.072 277.84 274.962 278.57 275.642 279.51C276.342 280.45 276.842 281.59 277.142 282.93C277.442 284.27 277.592 285.76 277.592 287.4C277.592 289.46 277.352 291.17 276.872 292.53C276.412 293.91 275.872 295 275.252 295.8C274.652 296.62 274.042 297.2 273.422 297.54C272.822 297.88 272.382 298.05 272.102 298.05C272.002 298.05 271.832 298.04 271.592 298.02C271.352 298.02 270.962 297.98 270.422 297.9C269.902 297.82 269.202 297.7 268.322 297.54C267.442 297.38 266.332 297.15 264.992 296.85V294C265.672 293.82 266.392 293.61 267.152 293.37C267.912 293.15 268.662 292.9 269.402 292.62C270.162 292.36 270.882 292.07 271.562 291.75C272.262 291.43 272.872 291.08 273.392 290.7L273.242 290.25ZM273.092 284.01C272.792 283.37 272.382 282.88 271.862 282.54C271.362 282.18 270.622 282 269.642 282L269.042 283.8C269.262 283.96 269.912 284.04 270.992 284.04C271.172 284.04 271.472 284.04 271.892 284.04C272.312 284.04 272.712 284.03 273.092 284.01ZM287.186 291C286.726 291 286.346 290.91 286.046 290.73C285.826 291.99 285.496 293.08 285.056 294C284.636 294.92 284.176 295.68 283.676 296.28C283.196 296.88 282.716 297.32 282.236 297.6C281.756 297.9 281.356 298.05 281.036 298.05C280.916 298.05 280.766 298.03 280.586 297.99C280.426 297.97 280.156 297.92 279.776 297.84C279.396 297.76 278.866 297.64 278.186 297.48C277.506 297.32 276.606 297.11 275.486 296.85V294C277.066 293.1 278.386 292.19 279.446 291.27C280.506 290.35 281.336 289.51 281.936 288.75C281.716 288.07 281.356 287.14 280.856 285.96C280.356 284.78 279.766 283.51 279.086 282.15L283.586 279.15L284.336 279.39C284.636 280.41 284.886 281.24 285.086 281.88C285.306 282.5 285.456 282.89 285.536 283.05C285.616 283.17 285.726 283.26 285.866 283.32C286.006 283.38 286.156 283.43 286.316 283.47C286.476 283.49 286.626 283.5 286.766 283.5C286.926 283.5 287.066 283.5 287.186 283.5V291ZM287.181 291C286.801 291 286.561 290.7 286.461 290.1C286.341 289.48 286.281 288.53 286.281 287.25C286.281 285.97 286.341 285.03 286.461 284.43C286.561 283.81 286.801 283.5 287.181 283.5C288.241 283.5 289.131 283.49 289.851 283.47C290.591 283.45 291.221 283.39 291.741 283.29C291.661 283.05 291.551 282.75 291.411 282.39C291.271 282.01 291.111 281.62 290.931 281.22C290.771 280.82 290.591 280.43 290.391 280.05C290.211 279.65 290.041 279.3 289.881 279L294.381 276L294.981 276.24C295.201 276.82 295.391 277.42 295.551 278.04C295.731 278.64 295.871 279.24 295.971 279.84C296.091 280.42 296.181 280.97 296.241 281.49C296.301 282.01 296.331 282.48 296.331 282.9C296.331 283.72 296.231 284.53 296.031 285.33C295.851 286.11 295.611 286.82 295.311 287.46C295.011 288.1 294.671 288.66 294.291 289.14C293.911 289.6 293.541 289.92 293.181 290.1C292.921 290.24 292.621 290.37 292.281 290.49C291.941 290.59 291.531 290.68 291.051 290.76C290.591 290.84 290.041 290.9 289.401 290.94C288.761 290.98 288.021 291 287.181 291ZM286.281 292.8H286.881L289.401 295.05L291.081 292.8H291.681L294.681 295.2L292.281 298.2H291.681L289.161 296.07L287.481 298.2H286.881L283.881 295.95L286.281 292.8ZM289.131 298.05H289.731L292.431 300.3L290.181 303.3H289.581L286.731 301.05L289.131 298.05ZM310.254 291C309.534 291 308.874 290.92 308.274 290.76C307.674 290.58 307.154 290.31 306.714 289.95C306.274 289.57 305.924 289.1 305.664 288.54C305.424 287.96 305.304 287.28 305.304 286.5C305.304 285.94 305.374 285.27 305.514 284.49C305.654 283.69 305.844 282.82 306.084 281.88C306.324 280.92 306.604 279.91 306.924 278.85C307.264 277.77 307.624 276.67 308.004 275.55L308.754 274.95C311.614 275.71 313.724 276.77 315.084 278.13C316.464 279.49 317.154 281.23 317.154 283.35C317.154 283.91 317.104 284.49 317.004 285.09C316.904 285.67 316.774 286.23 316.614 286.77C316.454 287.29 316.274 287.77 316.074 288.21C315.874 288.63 315.684 288.96 315.504 289.2C315.244 289.54 314.914 289.83 314.514 290.07C314.114 290.29 313.674 290.47 313.194 290.61C312.734 290.75 312.244 290.85 311.724 290.91C311.224 290.97 310.734 291 310.254 291ZM308.904 283.65C309.024 283.75 309.254 283.83 309.594 283.89C309.954 283.93 310.324 283.95 310.704 283.95C311.004 283.95 311.384 283.94 311.844 283.92C312.304 283.9 312.724 283.84 313.104 283.74C312.804 282.64 311.604 281.86 309.504 281.4L308.904 283.65ZM321.663 288.75C321.443 288.07 321.083 287.14 320.583 285.96C320.083 284.78 319.493 283.51 318.813 282.15L323.613 279L324.363 279.24C324.623 279.9 324.853 280.62 325.053 281.4C325.273 282.18 325.453 282.96 325.593 283.74C325.733 284.52 325.833 285.27 325.893 285.99C325.973 286.71 326.013 287.33 326.013 287.85C326.013 289.61 325.793 291.13 325.353 292.41C324.913 293.69 324.393 294.75 323.793 295.59C323.213 296.43 322.623 297.05 322.023 297.45C321.423 297.85 320.953 298.05 320.613 298.05C320.493 298.05 320.333 298.03 320.133 297.99C319.953 297.97 319.643 297.91 319.203 297.81C318.783 297.73 318.203 297.6 317.463 297.42C316.703 297.24 315.703 297 314.463 296.7V294C315.283 293.62 316.063 293.2 316.803 292.74C317.543 292.3 318.223 291.84 318.843 291.36C319.463 290.9 320.013 290.45 320.493 290.01C320.973 289.55 321.363 289.13 321.663 288.75ZM334.561 290.25C333.961 290.41 333.311 290.53 332.611 290.61C331.911 290.67 331.261 290.7 330.661 290.7C329.981 290.7 329.401 290.6 328.921 290.4C328.461 290.18 328.081 289.89 327.781 289.53C327.481 289.17 327.261 288.76 327.121 288.3C326.981 287.82 326.911 287.32 326.911 286.8C326.911 286.32 327.001 285.65 327.181 284.79C327.361 283.91 327.581 282.99 327.841 282.03C328.101 281.07 328.381 280.13 328.681 279.21C328.981 278.29 329.241 277.54 329.461 276.96L330.211 276.45C331.831 276.49 333.191 276.78 334.291 277.32C335.391 277.84 336.281 278.57 336.961 279.51C337.661 280.45 338.161 281.59 338.461 282.93C338.761 284.27 338.911 285.76 338.911 287.4C338.911 289.46 338.671 291.17 338.191 292.53C337.731 293.91 337.191 295 336.571 295.8C335.971 296.62 335.361 297.2 334.741 297.54C334.141 297.88 333.701 298.05 333.421 298.05C333.321 298.05 333.151 298.04 332.911 298.02C332.671 298.02 332.281 297.98 331.741 297.9C331.221 297.82 330.521 297.7 329.641 297.54C328.761 297.38 327.651 297.15 326.311 296.85V294C326.991 293.82 327.711 293.61 328.471 293.37C329.231 293.15 329.981 292.9 330.721 292.62C331.481 292.36 332.201 292.07 332.881 291.75C333.581 291.43 334.191 291.08 334.711 290.7L334.561 290.25ZM334.411 284.01C334.111 283.37 333.701 282.88 333.181 282.54C332.681 282.18 331.941 282 330.961 282L330.361 283.8C330.581 283.96 331.231 284.04 332.311 284.04C332.491 284.04 332.791 284.04 333.211 284.04C333.631 284.04 334.031 284.03 334.411 284.01ZM345.355 291C343.615 291 342.305 290.64 341.425 289.92C340.545 289.18 340.105 287.94 340.105 286.2C340.105 285.82 340.125 285.37 340.165 284.85C340.205 284.33 340.255 283.84 340.315 283.38C340.395 282.84 340.475 282.28 340.555 281.7L344.155 281.85V283.35C344.315 283.43 344.605 283.48 345.025 283.5C345.445 283.5 345.805 283.5 346.105 283.5C346.605 283.5 347.115 283.5 347.635 283.5C348.155 283.48 348.645 283.43 349.105 283.35C348.825 282.65 348.285 281.97 347.485 281.31C346.685 280.65 345.675 280.08 344.455 279.6L345.955 274.35L346.555 273.9C347.675 274.16 348.655 274.6 349.495 275.22C350.355 275.82 351.065 276.53 351.625 277.35C352.185 278.17 352.605 279.07 352.885 280.05C353.165 281.03 353.305 282.03 353.305 283.05C353.305 283.77 353.245 284.45 353.125 285.09C353.005 285.73 352.855 286.32 352.675 286.86C352.515 287.38 352.335 287.83 352.135 288.21C351.955 288.59 351.795 288.87 351.655 289.05C351.075 289.81 350.275 290.33 349.255 290.61C348.235 290.87 346.935 291 345.355 291Z" fill="#444444"/>
<path d="M42.9581 293L43.2681 286.924L42.9581 272.354H56.7531L57.0941 272.788L56.6911 277.438L51.5761 277.252H49.3441L49.2511 280.972H51.4211L55.1101 280.879L55.4821 281.313L55.0791 285.963L50.9561 285.87H49.1271V286.304L49.3751 293H42.9581ZM57.7488 293L58.0588 286.924L57.8108 270.99L64.0108 270.587L63.7318 286.304L63.9798 293H57.7488ZM71.576 286.769C71.7413 287.534 72.0926 288.092 72.63 288.443C73.188 288.774 73.9733 288.939 74.986 288.939C76.35 288.939 77.776 288.681 79.264 288.164L79.698 288.505L78.768 292.721C77.3006 293.155 75.792 293.372 74.242 293.372C71.576 293.372 69.499 292.68 68.011 291.295C66.5436 289.91 65.81 287.968 65.81 285.467C65.81 284.227 65.996 283.121 66.368 282.15C66.74 281.179 67.267 280.352 67.949 279.67C68.631 278.988 69.4576 278.471 70.429 278.12C71.4003 277.769 72.4956 277.593 73.715 277.593C75.885 277.593 77.528 278.151 78.644 279.267C79.7806 280.362 80.349 281.881 80.349 283.824C80.349 284.527 80.287 285.219 80.163 285.901L79.481 286.707L71.576 286.769ZM73.653 281.53C72.475 281.53 71.762 282.295 71.514 283.824L75.017 283.638L75.079 283.235C75.079 282.098 74.6036 281.53 73.653 281.53ZM81.1802 293L85.1172 285.529L81.1182 278.058L87.7832 277.841L88.4962 280.011L89.4262 282.026L90.5732 279.732L91.4412 277.965H96.7732L92.7742 285.405L96.7732 292.845L90.2322 293.248L89.4262 290.954L88.5272 288.908L87.3182 291.233L86.5432 293H81.1802ZM99.0885 289.28V284.01H111.953V289.28H99.0885ZM131.07 278.585H130.543C129.489 278.068 128.569 277.696 127.784 277.469C127.019 277.221 126.172 277.097 125.242 277.097C124.518 277.097 123.919 277.18 123.444 277.345C122.968 277.51 122.586 277.81 122.297 278.244C122.007 278.657 121.801 279.236 121.677 279.98C121.573 280.703 121.522 281.633 121.522 282.77C121.522 283.927 121.573 284.888 121.677 285.653C121.801 286.397 122.007 286.986 122.297 287.42C122.607 287.854 123.02 288.154 123.537 288.319C124.053 288.484 124.715 288.567 125.521 288.567C125.665 288.567 125.831 288.557 126.017 288.536C126.223 288.515 126.44 288.484 126.668 288.443V287.42L126.575 283.917L132.403 283.514L132.31 286.335V291.977C129.83 292.907 127.37 293.372 124.932 293.372C121.563 293.372 119.031 292.494 117.337 290.737C115.663 288.96 114.826 286.418 114.826 283.111C114.826 279.474 115.818 276.715 117.802 274.834C119.806 272.933 122.689 271.982 126.451 271.982C128.786 271.982 130.78 272.302 132.434 272.943L131.07 278.585ZM134.519 293L134.798 286.924L134.581 278.275L140.502 277.872V280.662H140.781C141.69 278.823 142.909 277.903 144.439 277.903C144.583 277.903 144.718 277.913 144.842 277.934C144.966 277.934 145.079 277.944 145.183 277.965V283.545L144.594 283.731C144.304 283.566 143.922 283.483 143.447 283.483C142.413 283.483 141.432 283.886 140.502 284.692V286.304L140.75 293H134.519ZM146.446 293L146.725 286.924L146.508 278.275L152.708 277.872L152.429 286.304L152.677 293H146.446ZM152.77 272.788C152.77 273.801 152.481 274.607 151.902 275.206C151.324 275.805 150.538 276.105 149.546 276.105C147.542 276.105 146.539 275.092 146.539 273.067C146.539 272.054 146.829 271.248 147.407 270.649C148.007 270.05 148.802 269.75 149.794 269.75C150.745 269.75 151.479 270.019 151.995 270.556C152.512 271.093 152.77 271.837 152.77 272.788ZM169.271 288.257C169.271 288.712 169.415 288.939 169.705 288.939C169.829 288.939 170.004 288.908 170.232 288.846L170.635 289.156L170.077 292.349C169.312 292.886 168.32 293.207 167.101 293.31C165.695 293.227 164.693 292.483 164.094 291.078H163.846C162.998 291.987 162.006 292.721 160.87 293.279C158.824 293.279 157.222 292.607 156.065 291.264C154.928 289.9 154.36 288.04 154.36 285.684C154.36 283.039 155.052 281.044 156.437 279.701C157.842 278.337 159.785 277.655 162.265 277.655C162.575 277.655 162.967 277.686 163.443 277.748L163.35 270.99L169.55 270.587L169.24 286.304L169.271 288.257ZM160.188 284.537C160.188 286.025 160.332 287.089 160.622 287.73C160.932 288.371 161.407 288.691 162.048 288.691C162.564 288.691 163.06 288.474 163.536 288.04L163.567 286.893L163.505 282.088C162.988 281.861 162.513 281.747 162.079 281.747C161.376 281.747 160.88 281.943 160.591 282.336C160.322 282.729 160.188 283.462 160.188 284.537Z" fill="#047857"/>
<path fill-rule="evenodd" clip-rule="evenodd" d="M191.882 106.16C210.69 107.705 222.013 125.414 236.08 138.004C251.62 151.911 275.242 161.442 276.893 182.24C278.582 203.517 260.014 220.356 243.709 234.112C229.007 246.517 211.107 253.534 191.882 253.966C172.152 254.409 151.447 250.64 137.673 236.495C124.028 222.482 121.651 201.803 122.038 182.24C122.416 163.156 126.878 144.152 139.782 130.096C153.222 115.456 172.083 104.535 191.882 106.16Z" fill="#444444"/>
<path d="M148 151.938C148 150.893 148.52 149.892 149.446 149.153C150.372 148.415 151.628 148 152.938 148H177.625C178.935 148 180.19 148.415 181.116 149.153C182.042 149.892 182.562 150.893 182.562 151.938V207.062C182.562 208.107 182.042 209.108 181.116 209.847C180.19 210.585 178.935 211 177.625 211H152.938C151.628 211 150.372 210.585 149.446 209.847C148.52 209.108 148 208.107 148 207.062V151.938ZM192.438 151.938C192.438 150.893 192.958 149.892 193.884 149.153C194.81 148.415 196.065 148 197.375 148H222.062C223.372 148 224.628 148.415 225.554 149.153C226.48 149.892 227 150.893 227 151.938V171.625C227 172.669 226.48 173.671 225.554 174.409C224.628 175.148 223.372 175.562 222.062 175.562H197.375C196.065 175.562 194.81 175.148 193.884 174.409C192.958 173.671 192.438 172.669 192.438 171.625V151.938ZM192.438 187.375C192.438 186.331 192.958 185.329 193.884 184.591C194.81 183.852 196.065 183.438 197.375 183.438H222.062C223.372 183.438 224.628 183.852 225.554 184.591C226.48 185.329 227 186.331 227 187.375V207.062C227 208.107 226.48 209.108 225.554 209.847C224.628 210.585 223.372 211 222.062 211H197.375C196.065 211 194.81 210.585 193.884 209.847C192.958 209.108 192.438 208.107 192.438 207.062V187.375Z" fill="white"/>
</g>
<defs>
<clipPath id="clip0">
<rect width="400" height="400" rx="8" fill="white"/>
</clipPath>
</defs>
</svg>
