<svg width="400" height="400" viewBox="0 0 400 400" fill="none" xmlns="http://www.w3.org/2000/svg">
<path d="M392 0H8C3.58172 0 0 3.58172 0 8V392C0 396.418 3.58172 400 8 400H392C396.418 400 400 396.418 400 392V8C400 3.58172 396.418 0 392 0Z" fill="#EDE9FE"/>
<path fill-rule="evenodd" clip-rule="evenodd" d="M194.882 104.16C213.69 105.705 225.013 123.414 239.08 136.004C254.62 149.911 278.242 159.442 279.893 180.24C281.582 201.517 263.014 218.356 246.709 232.112C232.007 244.517 214.107 251.534 194.882 251.966C175.152 252.409 154.447 248.64 140.673 234.495C127.028 220.482 124.651 199.803 125.038 180.24C125.416 161.156 129.878 142.152 142.782 128.096C156.222 113.456 175.083 102.535 194.882 104.16Z" fill="#444444"/>
<path d="M248.562 293C247.662 293 246.892 292.97 246.252 292.91C245.632 292.83 245.082 292.69 244.602 292.49C244.142 292.27 243.732 291.98 243.372 291.62C243.012 291.24 242.642 290.75 242.262 290.15C241.662 290.53 241.062 290.93 240.462 291.35C239.882 291.75 239.482 292.1 239.262 292.4V292.7C239.262 293.46 239.572 293.97 240.192 294.23C240.832 294.51 241.872 294.65 243.312 294.65C243.872 294.65 244.372 294.65 244.812 294.65C245.272 294.65 245.732 294.64 246.192 294.62C246.672 294.62 247.192 294.61 247.752 294.59C248.312 294.57 248.982 294.54 249.762 294.5L250.062 295.1L248.262 301.1C246.902 301.32 245.732 301.45 244.752 301.49C243.792 301.53 243.012 301.55 242.412 301.55C241.332 301.55 240.332 301.43 239.412 301.19C238.512 300.97 237.742 300.58 237.102 300.02C236.462 299.46 235.962 298.7 235.602 297.74C235.242 296.8 235.062 295.62 235.062 294.2V293.3C235.062 292.94 235.082 292.54 235.122 292.1C235.182 291.66 235.312 291.17 235.512 290.63C235.732 290.09 236.062 289.49 236.502 288.83C236.962 288.17 237.602 287.43 238.422 286.61C238.082 286.01 237.722 285.42 237.342 284.84C236.962 284.26 236.602 283.73 236.262 283.25H234.912L234.612 282.65L236.112 278.3C237.192 278.16 238.142 278.04 238.962 277.94C239.802 277.84 240.532 277.76 241.152 277.7C241.792 277.64 242.342 277.6 242.802 277.58C243.262 277.56 243.682 277.55 244.062 277.55C244.962 277.55 245.732 277.65 246.372 277.85C247.012 278.03 247.542 278.29 247.962 278.63C248.382 278.97 248.682 279.37 248.862 279.83C249.062 280.29 249.162 280.78 249.162 281.3C249.162 282.14 249.002 282.92 248.682 283.64C248.362 284.36 248.002 284.98 247.602 285.5H250.662V293H248.562ZM242.712 285.8C243.312 285.34 243.782 284.93 244.122 284.57C244.482 284.19 244.662 283.85 244.662 283.55C244.662 283.33 244.562 283.15 244.362 283.01C244.182 282.87 243.832 282.8 243.312 282.8C243.152 282.8 242.962 282.81 242.742 282.83C242.522 282.85 242.282 282.87 242.022 282.89C241.782 282.91 241.542 282.94 241.302 282.98C241.082 283 240.902 283.02 240.762 283.04L242.712 285.8ZM260.102 293C259.702 293 259.232 292.95 258.692 292.85C258.152 292.73 257.592 292.57 257.012 292.37C256.432 292.17 255.862 291.93 255.302 291.65C254.742 291.37 254.242 291.06 253.802 290.72C253.282 291.66 252.752 292.28 252.212 292.58C251.672 292.86 251.152 293 250.652 293C250.272 293 250.032 292.7 249.932 292.1C249.812 291.48 249.752 290.53 249.752 289.25C249.752 287.97 249.812 287.03 249.932 286.43C250.032 285.81 250.272 285.5 250.652 285.5C251.072 285.5 251.412 285.47 251.672 285.41C251.952 285.33 252.222 285.16 252.482 284.9C252.742 284.64 253.032 284.25 253.352 283.73C253.672 283.21 254.072 282.5 254.552 281.6C254.932 280.88 255.352 280.3 255.812 279.86C256.272 279.4 256.792 279.04 257.372 278.78C257.952 278.52 258.622 278.34 259.382 278.24C260.142 278.12 261.032 278.04 262.052 278L262.652 278.45C262.872 279.21 263.072 279.96 263.252 280.7C263.452 281.42 263.612 282.12 263.732 282.8C263.872 283.46 263.972 284.07 264.032 284.63C264.112 285.19 264.152 285.68 264.152 286.1C264.152 286.86 264.032 287.65 263.792 288.47C263.552 289.27 263.242 290.01 262.862 290.69C262.482 291.35 262.042 291.9 261.542 292.34C261.062 292.78 260.582 293 260.102 293ZM259.502 283.7C258.982 283.74 258.552 283.79 258.212 283.85C257.872 283.89 257.582 283.96 257.342 284.06C257.102 284.14 256.892 284.26 256.712 284.42C256.552 284.58 256.382 284.79 256.202 285.05C256.382 285.17 256.632 285.29 256.952 285.41C257.292 285.53 257.652 285.64 258.032 285.74C258.412 285.84 258.782 285.93 259.142 286.01C259.522 286.07 259.842 286.1 260.102 286.1C260.102 286.02 260.082 285.88 260.042 285.68C260.002 285.48 259.952 285.26 259.892 285.02C259.832 284.78 259.762 284.54 259.682 284.3C259.622 284.06 259.562 283.86 259.502 283.7ZM272.841 293C271.601 293 270.561 292.88 269.721 292.64C268.881 292.38 268.201 291.95 267.681 291.35C267.161 290.75 266.791 289.95 266.571 288.95C266.351 287.95 266.241 286.7 266.241 285.2V280.4C266.241 279.76 266.221 279.2 266.181 278.72C266.141 278.24 266.071 277.79 265.971 277.37C265.891 276.93 265.771 276.49 265.611 276.05C265.451 275.61 265.261 275.11 265.041 274.55L269.571 270.8C269.931 271.48 270.221 272.14 270.441 272.78C270.661 273.4 270.821 274.03 270.921 274.67C271.041 275.29 271.111 275.92 271.131 276.56C271.171 277.2 271.191 277.88 271.191 278.6V285.2C271.271 285.28 271.381 285.34 271.521 285.38C271.681 285.42 271.841 285.45 272.001 285.47C272.181 285.49 272.341 285.5 272.481 285.5C272.641 285.5 272.761 285.5 272.841 285.5V293ZM272.83 293C272.45 293 272.21 292.7 272.11 292.1C271.99 291.48 271.93 290.53 271.93 289.25C271.93 287.97 271.99 287.03 272.11 286.43C272.21 285.81 272.45 285.5 272.83 285.5H277.33C278.01 285.5 278.56 285.48 278.98 285.44C279.42 285.38 279.83 285.28 280.21 285.14C280.59 285 280.98 284.81 281.38 284.57C281.78 284.31 282.28 283.97 282.88 283.55C282.12 283.37 281.48 283.22 280.96 283.1C280.44 282.98 280.01 282.89 279.67 282.83C279.33 282.75 279.06 282.7 278.86 282.68C278.66 282.66 278.5 282.65 278.38 282.65C278.22 282.65 278.06 282.66 277.9 282.68C277.74 282.68 277.6 282.7 277.48 282.74V284.15L274.78 285.2L274.27 284.9C274.25 284.72 274.23 284.49 274.21 284.21C274.21 283.93 274.2 283.65 274.18 283.37C274.18 283.07 274.18 282.79 274.18 282.53C274.18 282.27 274.18 282.06 274.18 281.9C274.18 281.22 274.22 280.61 274.3 280.07C274.4 279.51 274.56 279.12 274.78 278.9C275.38 278.3 276.02 277.83 276.7 277.49C277.4 277.13 278.01 276.95 278.53 276.95C279.01 276.95 279.64 277.05 280.42 277.25C281.22 277.43 282.12 277.69 283.12 278.03C284.14 278.37 285.24 278.77 286.42 279.23C287.62 279.69 288.87 280.18 290.17 280.7L290.38 281.3L288.43 285.05C287.97 285.09 287.58 285.16 287.26 285.26C286.96 285.36 286.67 285.51 286.39 285.71C286.11 285.91 285.82 286.17 285.52 286.49C285.24 286.79 284.91 287.16 284.53 287.6C283.45 288.88 282.52 289.88 281.74 290.6C280.98 291.32 280.25 291.86 279.55 292.22C278.87 292.58 278.17 292.8 277.45 292.88C276.75 292.96 275.91 293 274.93 293H272.83ZM281.83 297.2L279.43 300.5H278.83L275.83 298.1L278.23 294.8H278.83L281.83 297.2ZM298.188 293C297.468 293 296.808 292.92 296.208 292.76C295.608 292.58 295.088 292.31 294.648 291.95C294.208 291.57 293.858 291.1 293.598 290.54C293.358 289.96 293.238 289.28 293.238 288.5C293.238 287.94 293.308 287.27 293.448 286.49C293.588 285.69 293.778 284.82 294.018 283.88C294.258 282.92 294.538 281.91 294.858 280.85C295.198 279.77 295.558 278.67 295.938 277.55L296.688 276.95C299.548 277.71 301.658 278.77 303.018 280.13C304.398 281.49 305.088 283.23 305.088 285.35C305.088 285.91 305.038 286.49 304.938 287.09C304.838 287.67 304.708 288.23 304.548 288.77C304.388 289.29 304.208 289.77 304.008 290.21C303.808 290.63 303.618 290.96 303.438 291.2C303.178 291.54 302.848 291.83 302.448 292.07C302.048 292.29 301.608 292.47 301.128 292.61C300.668 292.75 300.178 292.85 299.658 292.91C299.158 292.97 298.668 293 298.188 293ZM296.838 285.65C296.958 285.75 297.188 285.83 297.528 285.89C297.888 285.93 298.258 285.95 298.638 285.95C298.938 285.95 299.318 285.94 299.778 285.92C300.238 285.9 300.658 285.84 301.038 285.74C300.738 284.64 299.538 283.86 297.438 283.4L296.838 285.65ZM309.598 290.75C309.378 290.07 309.018 289.14 308.518 287.96C308.018 286.78 307.428 285.51 306.748 284.15L311.548 281L312.298 281.24C312.558 281.9 312.788 282.62 312.988 283.4C313.208 284.18 313.388 284.96 313.528 285.74C313.668 286.52 313.768 287.27 313.828 287.99C313.908 288.71 313.948 289.33 313.948 289.85C313.948 291.61 313.728 293.13 313.288 294.41C312.848 295.69 312.328 296.75 311.728 297.59C311.148 298.43 310.558 299.05 309.958 299.45C309.358 299.85 308.888 300.05 308.548 300.05C308.428 300.05 308.268 300.03 308.068 299.99C307.888 299.97 307.578 299.91 307.138 299.81C306.718 299.73 306.138 299.6 305.398 299.42C304.638 299.24 303.638 299 302.398 298.7V296C303.218 295.62 303.998 295.2 304.738 294.74C305.478 294.3 306.158 293.84 306.778 293.36C307.398 292.9 307.948 292.45 308.428 292.01C308.908 291.55 309.298 291.13 309.598 290.75ZM322.495 292.25C321.895 292.41 321.245 292.53 320.545 292.61C319.845 292.67 319.195 292.7 318.595 292.7C317.915 292.7 317.335 292.6 316.855 292.4C316.395 292.18 316.015 291.89 315.715 291.53C315.415 291.17 315.195 290.76 315.055 290.3C314.915 289.82 314.845 289.32 314.845 288.8C314.845 288.32 314.935 287.65 315.115 286.79C315.295 285.91 315.515 284.99 315.775 284.03C316.035 283.07 316.315 282.13 316.615 281.21C316.915 280.29 317.175 279.54 317.395 278.96L318.145 278.45C319.765 278.49 321.125 278.78 322.225 279.32C323.325 279.84 324.215 280.57 324.895 281.51C325.595 282.45 326.095 283.59 326.395 284.93C326.695 286.27 326.845 287.76 326.845 289.4C326.845 291.46 326.605 293.17 326.125 294.53C325.665 295.91 325.125 297 324.505 297.8C323.905 298.62 323.295 299.2 322.675 299.54C322.075 299.88 321.635 300.05 321.355 300.05C321.255 300.05 321.085 300.04 320.845 300.02C320.605 300.02 320.215 299.98 319.675 299.9C319.155 299.82 318.455 299.7 317.575 299.54C316.695 299.38 315.585 299.15 314.245 298.85V296C314.925 295.82 315.645 295.61 316.405 295.37C317.165 295.15 317.915 294.9 318.655 294.62C319.415 294.36 320.135 294.07 320.815 293.75C321.515 293.43 322.125 293.08 322.645 292.7L322.495 292.25ZM322.345 286.01C322.045 285.37 321.635 284.88 321.115 284.54C320.615 284.18 319.875 284 318.895 284L318.295 285.8C318.515 285.96 319.165 286.04 320.245 286.04C320.425 286.04 320.725 286.04 321.145 286.04C321.565 286.04 321.965 286.03 322.345 286.01ZM333.289 293C331.549 293 330.239 292.64 329.359 291.92C328.479 291.18 328.039 289.94 328.039 288.2C328.039 287.82 328.059 287.37 328.099 286.85C328.139 286.33 328.189 285.84 328.249 285.38C328.329 284.84 328.409 284.28 328.489 283.7L332.089 283.85V285.35C332.249 285.43 332.539 285.48 332.959 285.5C333.379 285.5 333.739 285.5 334.039 285.5C334.539 285.5 335.049 285.5 335.569 285.5C336.089 285.48 336.579 285.43 337.039 285.35C336.759 284.65 336.219 283.97 335.419 283.31C334.619 282.65 333.609 282.08 332.389 281.6L333.889 276.35L334.489 275.9C335.609 276.16 336.589 276.6 337.429 277.22C338.289 277.82 338.999 278.53 339.559 279.35C340.119 280.17 340.539 281.07 340.819 282.05C341.099 283.03 341.239 284.03 341.239 285.05C341.239 285.77 341.179 286.45 341.059 287.09C340.939 287.73 340.789 288.32 340.609 288.86C340.449 289.38 340.269 289.83 340.069 290.21C339.889 290.59 339.729 290.87 339.589 291.05C339.009 291.81 338.209 292.33 337.189 292.61C336.169 292.87 334.869 293 333.289 293Z" fill="#444444"/>
<path d="M100.784 285.51C100.964 285.97 101.054 286.46 101.054 286.98C101.054 288.6 100.424 289.88 99.1644 290.82C97.9244 291.76 96.2244 292.23 94.0644 292.23C93.4644 292.23 92.9144 292.2 92.4144 292.14C92.3544 292.32 92.3244 292.45 92.3244 292.53C92.3244 292.83 92.5244 293.03 92.9244 293.13C93.3444 293.23 94.0644 293.34 95.0844 293.46C96.3044 293.56 97.3544 293.71 98.2344 293.91C98.6744 294.01 99.0844 294.15 99.4644 294.33C99.8644 294.51 100.214 294.75 100.514 295.05C100.814 295.35 101.044 295.72 101.204 296.16C101.384 296.58 101.474 297.07 101.474 297.63C101.474 298.45 101.294 299.19 100.934 299.85C100.574 300.53 100.064 301.11 99.4044 301.59C98.7444 302.07 97.9444 302.44 97.0044 302.7C96.0844 302.96 95.0444 303.09 93.8844 303.09C91.7644 303.09 90.1344 302.71 88.9944 301.95C87.8744 301.21 87.3144 300.18 87.3144 298.86C87.6744 298.48 88.0544 298.13 88.4544 297.81C88.8544 297.49 89.2744 297.19 89.7144 296.91V296.73C88.2944 296.15 87.5844 295.09 87.5844 293.55C88.3244 292.83 89.1144 292.2 89.9544 291.66V291.48C88.2544 290.68 87.4044 289.32 87.4044 287.4C87.4044 285.72 88.0244 284.42 89.2644 283.5C90.5244 282.58 92.2444 282.12 94.4244 282.12C95.6844 282.12 96.8244 282.32 97.8444 282.72C98.5844 282.56 99.3344 282.36 100.094 282.12C100.854 281.88 101.614 281.59 102.374 281.25L102.764 281.58V285.21C102.224 285.31 101.584 285.37 100.844 285.39L100.784 285.51ZM95.9544 287.19C95.9544 286.63 95.8244 286.24 95.5644 286.02C95.3244 285.78 94.9144 285.66 94.3344 285.66C93.6544 285.66 93.1844 285.77 92.9244 285.99C92.6644 286.21 92.5344 286.58 92.5344 287.1C92.5344 287.74 92.6544 288.19 92.8944 288.45C93.1544 288.71 93.5844 288.84 94.1844 288.84C94.8044 288.84 95.2544 288.71 95.5344 288.45C95.8144 288.19 95.9544 287.77 95.9544 287.19ZM93.4644 297.45C93.2444 297.43 93.0444 297.41 92.8644 297.39C92.7044 297.37 92.5744 297.35 92.4744 297.33C92.1544 297.65 91.9944 298.02 91.9944 298.44C91.9944 299.44 92.8044 299.94 94.4244 299.94C95.1444 299.94 95.6744 299.84 96.0144 299.64C96.3544 299.46 96.5244 299.14 96.5244 298.68C96.5244 298.26 96.2844 297.98 95.8044 297.84C95.3244 297.7 94.5444 297.57 93.4644 297.45ZM103.342 297L103.612 291.12L103.402 282.75L109.402 282.36L109.132 290.52L109.372 297H103.342ZM109.462 277.44C109.462 278.42 109.182 279.2 108.622 279.78C108.062 280.36 107.302 280.65 106.342 280.65C104.402 280.65 103.432 279.67 103.432 277.71C103.432 276.73 103.712 275.95 104.272 275.37C104.852 274.79 105.622 274.5 106.582 274.5C107.502 274.5 108.212 274.76 108.712 275.28C109.212 275.8 109.462 276.52 109.462 277.44ZM121.47 292.71L120.9 296.04C119.94 296.62 118.85 297.01 117.63 297.21C115.99 297.21 114.71 296.85 113.79 296.13C112.87 295.39 112.41 294.39 112.41 293.13L112.59 289.92L112.56 286.05H110.64L110.49 285.75L110.73 282.57H112.56L112.53 279.93L118.11 278.46L118.5 278.79L118.35 282.57H121.35L121.53 282.87L121.26 286.05H118.2L118.02 291.27C118.02 291.77 118.11 292.12 118.29 292.32C118.47 292.52 118.78 292.62 119.22 292.62C119.8 292.62 120.42 292.49 121.08 292.23L121.47 292.71ZM122.492 293.4V288.3H134.942V293.4H122.492ZM150.238 285.51C150.418 285.97 150.508 286.46 150.508 286.98C150.508 288.6 149.878 289.88 148.618 290.82C147.378 291.76 145.678 292.23 143.518 292.23C142.918 292.23 142.368 292.2 141.868 292.14C141.808 292.32 141.778 292.45 141.778 292.53C141.778 292.83 141.978 293.03 142.378 293.13C142.798 293.23 143.518 293.34 144.538 293.46C145.758 293.56 146.808 293.71 147.688 293.91C148.128 294.01 148.538 294.15 148.918 294.33C149.318 294.51 149.668 294.75 149.968 295.05C150.268 295.35 150.498 295.72 150.658 296.16C150.838 296.58 150.928 297.07 150.928 297.63C150.928 298.45 150.748 299.19 150.388 299.85C150.028 300.53 149.518 301.11 148.858 301.59C148.198 302.07 147.398 302.44 146.458 302.7C145.538 302.96 144.498 303.09 143.338 303.09C141.218 303.09 139.588 302.71 138.448 301.95C137.328 301.21 136.768 300.18 136.768 298.86C137.128 298.48 137.508 298.13 137.908 297.81C138.308 297.49 138.728 297.19 139.168 296.91V296.73C137.748 296.15 137.038 295.09 137.038 293.55C137.778 292.83 138.568 292.2 139.408 291.66V291.48C137.708 290.68 136.858 289.32 136.858 287.4C136.858 285.72 137.478 284.42 138.718 283.5C139.978 282.58 141.698 282.12 143.878 282.12C145.138 282.12 146.278 282.32 147.298 282.72C148.038 282.56 148.788 282.36 149.548 282.12C150.308 281.88 151.068 281.59 151.828 281.25L152.217 281.58V285.21C151.678 285.31 151.038 285.37 150.298 285.39L150.238 285.51ZM145.408 287.19C145.408 286.63 145.278 286.24 145.018 286.02C144.778 285.78 144.368 285.66 143.788 285.66C143.108 285.66 142.638 285.77 142.378 285.99C142.118 286.21 141.988 286.58 141.988 287.1C141.988 287.74 142.108 288.19 142.348 288.45C142.608 288.71 143.038 288.84 143.638 288.84C144.258 288.84 144.708 288.71 144.988 288.45C145.268 288.19 145.408 287.77 145.408 287.19ZM142.918 297.45C142.698 297.43 142.498 297.41 142.318 297.39C142.158 297.37 142.028 297.35 141.928 297.33C141.608 297.65 141.448 298.02 141.448 298.44C141.448 299.44 142.258 299.94 143.878 299.94C144.598 299.94 145.128 299.84 145.468 299.64C145.808 299.46 145.978 299.14 145.978 298.68C145.978 298.26 145.738 297.98 145.258 297.84C144.778 297.7 143.998 297.57 142.918 297.45ZM152.795 297L153.065 291.12L152.855 282.75L158.855 282.36L158.585 290.52L158.825 297H152.795ZM158.915 277.44C158.915 278.42 158.635 279.2 158.075 279.78C157.515 280.36 156.755 280.65 155.795 280.65C153.855 280.65 152.885 279.67 152.885 277.71C152.885 276.73 153.165 275.95 153.725 275.37C154.305 274.79 155.075 274.5 156.035 274.5C156.955 274.5 157.665 274.76 158.165 275.28C158.665 275.8 158.915 276.52 158.915 277.44ZM170.923 292.71L170.353 296.04C169.393 296.62 168.303 297.01 167.083 297.21C165.443 297.21 164.163 296.85 163.243 296.13C162.323 295.39 161.863 294.39 161.863 293.13L162.043 289.92L162.013 286.05H160.093L159.943 285.75L160.183 282.57H162.013L161.983 279.93L167.563 278.46L167.953 278.79L167.803 282.57H170.803L170.983 282.87L170.713 286.05H167.653L167.473 291.27C167.473 291.77 167.563 292.12 167.743 292.32C167.923 292.52 168.233 292.62 168.673 292.62C169.253 292.62 169.873 292.49 170.533 292.23L170.923 292.71ZM180.945 297L181.275 288.84C181.275 287.58 180.785 286.95 179.805 286.95C179.345 286.95 178.865 287.1 178.365 287.4L178.305 290.52L178.545 297H172.515L172.815 291.12L172.575 275.7L178.575 275.31L178.425 284.52H178.575C179.675 283.42 180.885 282.66 182.205 282.24C183.765 282.24 184.945 282.59 185.745 283.29C186.545 283.99 186.925 285 186.885 286.32L186.765 290.52L186.975 297H180.945ZM203.282 293.07C203.402 293.07 203.572 293.04 203.792 292.98L204.182 293.28L203.642 296.37C202.902 296.89 201.942 297.2 200.762 297.3C199.422 297.18 198.492 296.32 197.972 294.72H197.582C196.482 295.96 195.302 296.78 194.042 297.18C192.522 297.18 191.342 296.83 190.502 296.13C189.662 295.43 189.242 294.42 189.242 293.1L189.332 289.92L189.152 282.75L194.882 282.36V290.73C194.882 291.35 194.982 291.79 195.182 292.05C195.382 292.31 195.702 292.44 196.142 292.44C196.642 292.44 197.082 292.28 197.462 291.96V282.75L203.192 282.36L202.832 292.44C202.832 292.86 202.982 293.07 203.282 293.07ZM220.586 289.35C220.586 291.95 219.916 293.94 218.576 295.32C217.256 296.68 215.416 297.36 213.056 297.36C211.716 297.36 210.326 297.11 208.886 296.61L206.366 297.36L205.826 296.79L206.096 291.12L205.856 275.7L211.856 275.31L211.676 284.52H211.826C212.706 283.48 213.696 282.71 214.796 282.21C216.616 282.21 218.036 282.84 219.056 284.1C220.076 285.36 220.586 287.11 220.586 289.35ZM214.916 290.28C214.916 289.14 214.746 288.3 214.406 287.76C214.086 287.22 213.556 286.95 212.816 286.95C212.396 286.95 212.006 287.07 211.646 287.31L211.586 290.37L211.616 293.49C211.996 293.61 212.366 293.67 212.726 293.67C213.446 293.67 213.986 293.42 214.346 292.92C214.726 292.42 214.916 291.54 214.916 290.28Z" fill="#6D28D9"/>
<path d="M145.81 181.09L187.725 137.867C190.137 135.378 194.052 135.378 196.468 137.867L205.171 146.843L194.13 158.229C191.565 157.335 188.622 157.935 186.577 160.044C184.522 162.167 183.945 165.227 184.833 167.882L174.192 178.855C171.617 177.941 168.647 178.532 166.591 180.656C163.717 183.619 163.717 188.42 166.591 191.384C169.465 194.349 174.121 194.349 176.997 191.384C179.158 189.153 179.692 185.879 178.598 183.133L188.521 172.899L188.523 199.83C187.803 200.197 187.146 200.681 186.577 201.265C183.703 204.227 183.703 209.028 186.577 211.995C189.451 214.958 194.109 214.958 196.98 211.995C199.853 209.028 199.853 204.227 196.98 201.265C196.291 200.554 195.472 199.992 194.572 199.609V172.428C195.474 172.048 196.293 171.485 196.98 170.772C199.157 168.53 199.68 165.236 198.565 162.479L209.449 151.253L238.189 180.89C240.604 183.382 240.604 187.419 238.189 189.909L196.273 233.133C193.86 235.622 189.946 235.622 187.53 233.133L145.811 190.11C143.396 187.619 143.396 183.579 145.811 181.09" fill="#C4B5FD"/>
</svg>
