<svg width="400" height="400" viewBox="0 0 400 400" fill="none" xmlns="http://www.w3.org/2000/svg">
<g clip-path="url(#clip0)">
<rect width="400" height="400" rx="8" fill="#F7DF1E"/>
<path d="M210.781 288C210.181 288 209.721 287.91 209.401 287.73C209.361 288.17 209.301 288.6 209.221 289.02C209.141 289.46 209.051 289.86 208.951 290.22C208.871 290.58 208.791 290.88 208.711 291.12C208.631 291.38 208.571 291.54 208.531 291.6C208.271 292.06 207.831 292.49 207.211 292.89C206.591 293.31 205.861 293.68 205.021 294C204.181 294.32 203.271 294.57 202.291 294.75C201.331 294.95 200.361 295.05 199.381 295.05C196.901 295.05 195.081 294.51 193.921 293.43C192.761 292.37 192.181 290.66 192.181 288.3C192.181 287.54 192.251 286.48 192.391 285.12C192.551 283.76 192.781 282.17 193.081 280.35L196.831 280.65L196.381 286.95C196.681 287.17 197.121 287.33 197.701 287.43C198.281 287.51 198.841 287.55 199.381 287.55C200.281 287.55 201.241 287.5 202.261 287.4C203.301 287.28 204.241 287.03 205.081 286.65C205.001 286.21 204.881 285.67 204.721 285.03C204.561 284.37 204.381 283.69 204.181 282.99C203.981 282.29 203.761 281.59 203.521 280.89C203.281 280.19 203.051 279.56 202.831 279L207.331 276.15L208.081 276.39C208.301 277.33 208.501 278.12 208.681 278.76C208.881 279.4 209.031 279.83 209.131 280.05C209.211 280.17 209.321 280.26 209.461 280.32C209.601 280.38 209.751 280.43 209.911 280.47C210.071 280.49 210.221 280.5 210.361 280.5C210.521 280.5 210.661 280.5 210.781 280.5V288ZM199.381 279.9L196.381 277.5L198.781 274.2H199.381L202.381 276.6L199.981 279.9H199.381ZM210.767 288C210.387 288 210.147 287.7 210.047 287.1C209.927 286.48 209.867 285.53 209.867 284.25C209.867 282.97 209.927 282.03 210.047 281.43C210.147 280.81 210.387 280.5 210.767 280.5C211.827 280.5 212.717 280.49 213.437 280.47C214.177 280.45 214.807 280.39 215.327 280.29C215.247 280.05 215.137 279.75 214.997 279.39C214.857 279.01 214.697 278.62 214.517 278.22C214.357 277.82 214.177 277.43 213.977 277.05C213.797 276.65 213.627 276.3 213.467 276L217.967 273L218.567 273.24C218.787 273.82 218.977 274.42 219.137 275.04C219.317 275.64 219.457 276.24 219.557 276.84C219.677 277.42 219.767 277.97 219.827 278.49C219.887 279.01 219.917 279.48 219.917 279.9C219.917 280.72 219.817 281.53 219.617 282.33C219.437 283.11 219.197 283.82 218.897 284.46C218.597 285.1 218.257 285.66 217.877 286.14C217.497 286.6 217.127 286.92 216.767 287.1C216.507 287.24 216.207 287.37 215.867 287.49C215.527 287.59 215.117 287.68 214.637 287.76C214.177 287.84 213.627 287.9 212.987 287.94C212.347 287.98 211.607 288 210.767 288ZM218.267 292.2L215.867 295.5H215.267L212.687 293.19L211.067 295.5H210.467L207.467 293.1L209.867 289.8H210.467L213.017 292.08L214.667 289.8H215.267L218.267 292.2ZM228.469 287.25C227.869 287.41 227.219 287.53 226.519 287.61C225.819 287.67 225.169 287.7 224.569 287.7C223.889 287.7 223.309 287.6 222.829 287.4C222.369 287.18 221.989 286.89 221.689 286.53C221.389 286.17 221.169 285.76 221.029 285.3C220.889 284.82 220.819 284.32 220.819 283.8C220.819 283.32 220.909 282.65 221.089 281.79C221.269 280.91 221.489 279.99 221.749 279.03C222.009 278.07 222.289 277.13 222.589 276.21C222.889 275.29 223.149 274.54 223.369 273.96L224.119 273.45C225.379 273.49 226.489 273.68 227.449 274.02C228.409 274.34 229.219 274.8 229.879 275.4C230.559 276 231.109 276.73 231.529 277.59C231.949 278.45 232.269 279.42 232.489 280.5H233.869V288H232.489C232.229 289.34 231.859 290.46 231.379 291.36C230.899 292.26 230.399 292.98 229.879 293.52C229.359 294.08 228.859 294.47 228.379 294.69C227.919 294.93 227.569 295.05 227.329 295.05C227.229 295.05 227.059 295.04 226.819 295.02C226.579 295.02 226.189 294.98 225.649 294.9C225.129 294.82 224.429 294.7 223.549 294.54C222.669 294.38 221.559 294.15 220.219 293.85V291C220.899 290.82 221.619 290.61 222.379 290.37C223.139 290.15 223.889 289.9 224.629 289.62C225.389 289.36 226.109 289.07 226.789 288.75C227.489 288.43 228.099 288.08 228.619 287.7L228.469 287.25ZM228.319 281.01C228.019 280.37 227.609 279.88 227.089 279.54C226.589 279.18 225.849 279 224.869 279L224.269 280.8C224.489 280.96 225.139 281.04 226.219 281.04C226.399 281.04 226.699 281.04 227.119 281.04C227.539 281.04 227.939 281.03 228.319 281.01ZM242.275 288C241.175 288 240.315 287.87 239.695 287.61C239.095 287.33 238.635 286.91 238.315 286.35C238.095 286.69 237.895 286.94 237.715 287.1C237.555 287.26 237.425 287.36 237.325 287.4C237.025 287.56 236.715 287.68 236.395 287.76C236.075 287.84 235.765 287.9 235.465 287.94C235.185 287.96 234.925 287.98 234.685 288C234.465 288 234.295 288 234.175 288C233.795 288 233.555 287.7 233.455 287.1C233.335 286.48 233.275 285.53 233.275 284.25C233.275 282.97 233.335 282.03 233.455 281.43C233.555 280.81 233.795 280.5 234.175 280.5C234.395 280.5 234.645 280.5 234.925 280.5C235.205 280.48 235.455 280.43 235.675 280.35L235.525 275.4C235.505 274.72 235.475 274.14 235.435 273.66C235.415 273.18 235.365 272.73 235.285 272.31C235.225 271.89 235.125 271.47 234.985 271.05C234.865 270.61 234.695 270.11 234.475 269.55L239.005 265.8C239.365 266.48 239.655 267.14 239.875 267.78C240.095 268.4 240.255 269.03 240.355 269.67C240.475 270.29 240.545 270.92 240.565 271.56C240.605 272.2 240.625 272.88 240.625 273.6V280.2C240.705 280.28 240.815 280.34 240.955 280.38C241.115 280.42 241.275 280.45 241.435 280.47C241.615 280.49 241.775 280.5 241.915 280.5C242.075 280.5 242.195 280.5 242.275 280.5V288ZM242.261 288C241.881 288 241.641 287.7 241.541 287.1C241.421 286.48 241.361 285.53 241.361 284.25C241.361 282.97 241.421 282.03 241.541 281.43C241.641 280.81 241.881 280.5 242.261 280.5H244.661C244.921 280.5 245.221 280.5 245.561 280.5C245.901 280.5 246.241 280.5 246.581 280.5C246.941 280.48 247.281 280.46 247.601 280.44C247.941 280.42 248.231 280.38 248.471 280.32C248.371 280.08 248.211 279.8 247.991 279.48C247.771 279.14 247.451 278.73 247.031 278.25C246.611 277.77 246.071 277.21 245.411 276.57C244.771 275.93 243.971 275.19 243.011 274.35L243.611 271.5C243.691 271.08 243.781 270.74 243.881 270.48C243.981 270.22 244.101 270 244.241 269.82C244.401 269.64 244.601 269.5 244.841 269.4C245.101 269.3 245.441 269.2 245.861 269.1L255.311 267L255.761 267.45L254.861 272.85L250.061 273.9C251.041 274.8 251.861 275.78 252.521 276.84C253.181 277.9 253.511 279.07 253.511 280.35C253.511 281.03 253.421 281.73 253.241 282.45C253.081 283.15 252.861 283.82 252.581 284.46C252.301 285.08 251.981 285.63 251.621 286.11C251.261 286.59 250.891 286.92 250.511 287.1C249.831 287.44 248.981 287.68 247.961 287.82C246.961 287.94 245.711 288 244.211 288H242.261ZM265.499 288C265.039 288 264.649 287.91 264.329 287.73C264.109 288.99 263.769 290.08 263.309 291C262.849 291.92 262.359 292.68 261.839 293.28C261.339 293.88 260.839 294.32 260.339 294.6C259.859 294.9 259.479 295.05 259.199 295.05C259.079 295.05 258.919 295.03 258.719 294.99C258.539 294.97 258.229 294.91 257.789 294.81C257.369 294.73 256.789 294.6 256.049 294.42C255.289 294.24 254.289 294 253.049 293.7V291C253.869 290.62 254.649 290.2 255.389 289.74C256.129 289.3 256.809 288.84 257.429 288.36C258.049 287.9 258.599 287.45 259.079 287.01C259.559 286.55 259.949 286.13 260.249 285.75C260.029 285.07 259.669 284.14 259.169 282.96C258.669 281.78 258.079 280.51 257.399 279.15L261.899 276.15L262.649 276.39C262.949 277.41 263.199 278.24 263.399 278.88C263.619 279.5 263.769 279.89 263.849 280.05C263.929 280.17 264.039 280.26 264.179 280.32C264.319 280.38 264.469 280.43 264.629 280.47C264.789 280.49 264.939 280.5 265.079 280.5C265.239 280.5 265.379 280.5 265.499 280.5V288ZM275.393 288C274.393 288 273.563 287.88 272.903 287.64C272.243 287.38 271.673 287 271.193 286.5C271.093 286.64 270.973 286.78 270.833 286.92C270.713 287.04 270.583 287.15 270.443 287.25C270.223 287.41 269.963 287.54 269.663 287.64C269.383 287.72 269.083 287.79 268.763 287.85C268.463 287.91 268.153 287.95 267.833 287.97C267.533 287.99 267.253 288 266.993 288H265.493C265.113 288 264.873 287.7 264.773 287.1C264.653 286.48 264.593 285.53 264.593 284.25C264.593 282.97 264.653 282.03 264.773 281.43C264.873 280.81 265.113 280.5 265.493 280.5H266.783C266.763 280.42 266.743 280.32 266.723 280.2C266.703 280.06 266.693 279.91 266.693 279.75C266.693 279.31 266.773 278.84 266.933 278.34C267.113 277.84 267.393 277.29 267.773 276.69C268.153 276.07 268.633 275.37 269.213 274.59C269.813 273.79 270.523 272.86 271.343 271.8L272.093 271.65C273.133 272.17 274.023 272.66 274.763 273.12C275.523 273.58 276.133 274.04 276.593 274.5C277.053 274.96 277.393 275.46 277.613 276C277.833 276.52 277.943 277.12 277.943 277.8C277.943 278.24 277.853 278.73 277.673 279.27C277.513 279.79 277.353 280.2 277.193 280.5H278.993V288H275.393ZM272.093 270.3L269.093 267.9L271.493 264.6H272.093L275.093 267L272.693 270.3H272.093ZM270.593 279.45C270.673 279.83 270.943 280.16 271.403 280.44C271.883 280.7 272.463 280.87 273.143 280.95C273.363 280.65 273.513 280.39 273.593 280.17C273.693 279.95 273.743 279.76 273.743 279.6C273.743 279.3 273.603 279 273.323 278.7C273.043 278.4 272.483 278.1 271.643 277.8C271.563 277.88 271.473 277.99 271.373 278.13C271.273 278.27 271.163 278.42 271.043 278.58C270.943 278.74 270.853 278.9 270.773 279.06C270.693 279.2 270.633 279.33 270.593 279.45ZM289.199 288C288.239 288 287.419 287.97 286.739 287.91C286.079 287.85 285.509 287.74 285.029 287.58C284.549 287.42 284.149 287.22 283.829 286.98C283.509 286.72 283.229 286.39 282.989 285.99C282.709 286.47 282.459 286.82 282.239 287.04C282.019 287.26 281.789 287.43 281.549 287.55C280.949 287.85 280.099 288 278.999 288C278.619 288 278.379 287.7 278.279 287.1C278.159 286.48 278.099 285.53 278.099 284.25C278.099 282.97 278.159 282.03 278.279 281.43C278.379 280.81 278.619 280.5 278.999 280.5C279.199 280.5 279.519 280.5 279.959 280.5C280.399 280.48 280.809 280.42 281.189 280.32L281.999 276.6H285.599V278.55C285.599 278.99 285.639 279.34 285.719 279.6C287.139 278.34 288.369 277.27 289.409 276.39C290.469 275.49 291.359 274.76 292.079 274.2C292.819 273.62 293.429 273.2 293.909 272.94C294.389 272.68 294.769 272.55 295.049 272.55C295.769 272.55 296.439 272.75 297.059 273.15C297.699 273.55 298.259 274.07 298.739 274.71C299.219 275.35 299.599 276.09 299.879 276.93C300.159 277.75 300.299 278.59 300.299 279.45C300.299 280.21 300.199 281 299.999 281.82C299.819 282.64 299.579 283.41 299.279 284.13C298.979 284.85 298.639 285.48 298.259 286.02C297.899 286.56 297.529 286.92 297.149 287.1C296.389 287.48 295.479 287.73 294.419 287.85C293.379 287.95 292.139 288 290.699 288H289.199ZM293.699 278.25C293.479 278.25 293.029 278.45 292.349 278.85C291.689 279.25 290.719 279.9 289.439 280.8H292.199C293.319 280.8 294.149 280.78 294.689 280.74C295.229 280.7 295.649 280.57 295.949 280.35C295.729 279.83 295.409 279.35 294.989 278.91C294.569 278.47 294.139 278.25 293.699 278.25ZM308.254 288C307.534 288 306.874 287.92 306.274 287.76C305.674 287.58 305.154 287.31 304.714 286.95C304.274 286.57 303.924 286.1 303.664 285.54C303.424 284.96 303.304 284.28 303.304 283.5C303.304 282.94 303.374 282.27 303.514 281.49C303.654 280.69 303.844 279.82 304.084 278.88C304.324 277.92 304.604 276.91 304.924 275.85C305.264 274.77 305.624 273.67 306.004 272.55L306.754 271.95C309.614 272.71 311.724 273.77 313.084 275.13C314.464 276.49 315.154 278.23 315.154 280.35C315.154 280.91 315.104 281.49 315.004 282.09C314.904 282.67 314.774 283.23 314.614 283.77C314.454 284.29 314.274 284.77 314.074 285.21C313.874 285.63 313.684 285.96 313.504 286.2C313.244 286.54 312.914 286.83 312.514 287.07C312.114 287.29 311.674 287.47 311.194 287.61C310.734 287.75 310.244 287.85 309.724 287.91C309.224 287.97 308.734 288 308.254 288ZM306.904 280.65C307.024 280.75 307.254 280.83 307.594 280.89C307.954 280.93 308.324 280.95 308.704 280.95C309.004 280.95 309.384 280.94 309.844 280.92C310.304 280.9 310.724 280.84 311.104 280.74C310.804 279.64 309.604 278.86 307.504 278.4L306.904 280.65ZM319.663 285.75C319.443 285.07 319.083 284.14 318.583 282.96C318.083 281.78 317.493 280.51 316.813 279.15L321.613 276L322.363 276.24C322.623 276.9 322.853 277.62 323.053 278.4C323.273 279.18 323.453 279.96 323.593 280.74C323.733 281.52 323.833 282.27 323.893 282.99C323.973 283.71 324.013 284.33 324.013 284.85C324.013 286.61 323.793 288.13 323.353 289.41C322.913 290.69 322.393 291.75 321.793 292.59C321.213 293.43 320.623 294.05 320.023 294.45C319.423 294.85 318.953 295.05 318.613 295.05C318.493 295.05 318.333 295.03 318.133 294.99C317.953 294.97 317.643 294.91 317.203 294.81C316.783 294.73 316.203 294.6 315.463 294.42C314.703 294.24 313.703 294 312.463 293.7V291C313.283 290.62 314.063 290.2 314.803 289.74C315.543 289.3 316.223 288.84 316.843 288.36C317.463 287.9 318.013 287.45 318.493 287.01C318.973 286.55 319.363 286.13 319.663 285.75ZM332.561 287.25C331.961 287.41 331.311 287.53 330.611 287.61C329.911 287.67 329.261 287.7 328.661 287.7C327.981 287.7 327.401 287.6 326.921 287.4C326.461 287.18 326.081 286.89 325.781 286.53C325.481 286.17 325.261 285.76 325.121 285.3C324.981 284.82 324.911 284.32 324.911 283.8C324.911 283.32 325.001 282.65 325.181 281.79C325.361 280.91 325.581 279.99 325.841 279.03C326.101 278.07 326.381 277.13 326.681 276.21C326.981 275.29 327.241 274.54 327.461 273.96L328.211 273.45C329.831 273.49 331.191 273.78 332.291 274.32C333.391 274.84 334.281 275.57 334.961 276.51C335.661 277.45 336.161 278.59 336.461 279.93C336.761 281.27 336.911 282.76 336.911 284.4C336.911 286.46 336.671 288.17 336.191 289.53C335.731 290.91 335.191 292 334.571 292.8C333.971 293.62 333.361 294.2 332.741 294.54C332.141 294.88 331.701 295.05 331.421 295.05C331.321 295.05 331.151 295.04 330.911 295.02C330.671 295.02 330.281 294.98 329.741 294.9C329.221 294.82 328.521 294.7 327.641 294.54C326.761 294.38 325.651 294.15 324.311 293.85V291C324.991 290.82 325.711 290.61 326.471 290.37C327.231 290.15 327.981 289.9 328.721 289.62C329.481 289.36 330.201 289.07 330.881 288.75C331.581 288.43 332.191 288.08 332.711 287.7L332.561 287.25ZM332.411 281.01C332.111 280.37 331.701 279.88 331.181 279.54C330.681 279.18 329.941 279 328.961 279L328.361 280.8C328.581 280.96 329.231 281.04 330.311 281.04C330.491 281.04 330.791 281.04 331.211 281.04C331.631 281.04 332.031 281.03 332.411 281.01ZM343.355 288C341.615 288 340.305 287.64 339.425 286.92C338.545 286.18 338.105 284.94 338.105 283.2C338.105 282.82 338.125 282.37 338.165 281.85C338.205 281.33 338.255 280.84 338.315 280.38C338.395 279.84 338.475 279.28 338.555 278.7L342.155 278.85V280.35C342.315 280.43 342.605 280.48 343.025 280.5C343.445 280.5 343.805 280.5 344.105 280.5C344.605 280.5 345.115 280.5 345.635 280.5C346.155 280.48 346.645 280.43 347.105 280.35C346.825 279.65 346.285 278.97 345.485 278.31C344.685 277.65 343.675 277.08 342.455 276.6L343.955 271.35L344.555 270.9C345.675 271.16 346.655 271.6 347.495 272.22C348.355 272.82 349.065 273.53 349.625 274.35C350.185 275.17 350.605 276.07 350.885 277.05C351.165 278.03 351.305 279.03 351.305 280.05C351.305 280.77 351.245 281.45 351.125 282.09C351.005 282.73 350.855 283.32 350.675 283.86C350.515 284.38 350.335 284.83 350.135 285.21C349.955 285.59 349.795 285.87 349.655 286.05C349.075 286.81 348.275 287.33 347.255 287.61C346.235 287.87 344.935 288 343.355 288Z" fill="#444444"/>
<path d="M58.1879 272.788C58.1879 273.801 57.8986 274.607 57.3199 275.206C56.7413 275.805 55.9559 276.105 54.9639 276.105C52.9593 276.105 51.9569 275.092 51.9569 273.067C51.9569 272.054 52.2463 271.248 52.8249 270.649C53.4036 270.05 54.1993 269.75 55.2119 269.75C56.1419 269.75 56.8653 270.019 57.3819 270.556C57.9193 271.093 58.1879 271.837 58.1879 272.788ZM58.2499 286.304L58.4669 291.884C58.4669 293.579 57.9709 295.025 56.9789 296.224C56.0076 297.443 54.4886 298.466 52.4219 299.293L50.3449 296.534V296.038C51.8123 295.253 52.5459 293.909 52.5459 292.008V286.924L52.4219 281.685H50.3759L50.0659 281.344L50.3139 278.089H52.5769L58.3739 277.81L58.5289 277.934L58.2499 286.304ZM74.2593 282.181C74.2593 282.388 74.2489 282.77 74.2283 283.328C74.2076 283.886 74.1766 284.63 74.1353 285.56C74.0939 286.366 74.0629 286.996 74.0423 287.451C74.0216 287.906 74.0113 288.185 74.0113 288.288C74.0113 288.722 74.1663 288.939 74.4763 288.939C74.6003 288.939 74.7759 288.908 75.0033 288.846L75.4062 289.156L74.8483 292.349C74.0836 292.886 73.0916 293.207 71.8723 293.31C70.5909 293.227 69.6816 292.473 69.1443 291.047H68.8963C67.9456 292.142 66.8813 292.907 65.7033 293.341C64.0913 293.32 62.7996 292.876 61.8283 292.008C60.8569 291.14 60.3713 289.931 60.3713 288.381C60.3713 286.025 61.6009 284.671 64.0603 284.32L68.5863 283.7V283.328C68.5863 282.77 68.4726 282.377 68.2453 282.15C68.0386 281.902 67.6563 281.778 67.0983 281.778C65.8996 281.778 64.3496 282.295 62.4483 283.328L62.0763 283.08L61.3943 279.143C63.4609 278.068 65.7136 277.531 68.1523 277.531C70.0949 277.531 71.5933 277.934 72.6473 278.74C73.7219 279.546 74.2593 280.693 74.2593 282.181ZM65.9203 287.823C65.9203 288.67 66.3129 289.094 67.0983 289.094C67.6149 289.094 68.1109 288.929 68.5863 288.598V286.428L66.7573 286.676C66.1993 286.779 65.9203 287.162 65.9203 287.823ZM79.9192 293L76.1062 278.027L81.9342 277.81L82.3372 280.848L83.4532 287.296H83.7632L85.2202 281.22L85.7782 277.934H91.1412L86.6772 293H79.9192ZM105.229 282.181C105.229 282.388 105.219 282.77 105.198 283.328C105.177 283.886 105.146 284.63 105.105 285.56C105.064 286.366 105.033 286.996 105.012 287.451C104.991 287.906 104.981 288.185 104.981 288.288C104.981 288.722 105.136 288.939 105.446 288.939C105.57 288.939 105.746 288.908 105.973 288.846L106.376 289.156L105.818 292.349C105.053 292.886 104.061 293.207 102.842 293.31C101.561 293.227 100.651 292.473 100.114 291.047H99.866C98.9153 292.142 97.851 292.907 96.673 293.341C95.061 293.32 93.7693 292.876 92.798 292.008C91.8266 291.14 91.341 289.931 91.341 288.381C91.341 286.025 92.5706 284.671 95.03 284.32L99.556 283.7V283.328C99.556 282.77 99.4423 282.377 99.215 282.15C99.0083 281.902 98.626 281.778 98.068 281.778C96.8693 281.778 95.3193 282.295 93.418 283.328L93.046 283.08L92.364 279.143C94.4306 278.068 96.6833 277.531 99.122 277.531C101.065 277.531 102.563 277.934 103.617 278.74C104.692 279.546 105.229 280.693 105.229 282.181ZM96.89 287.823C96.89 288.67 97.2826 289.094 98.068 289.094C98.5846 289.094 99.0806 288.929 99.556 288.598V286.428L97.727 286.676C97.169 286.779 96.89 287.162 96.89 287.823ZM118.267 282.677L117.554 282.925C116.831 282.47 116.097 282.109 115.353 281.84C114.609 281.571 114.02 281.437 113.586 281.437C113.028 281.437 112.749 281.633 112.749 282.026C112.749 282.295 112.904 282.532 113.214 282.739C113.545 282.925 114.072 283.142 114.795 283.39C115.27 283.555 115.694 283.721 116.066 283.886C116.438 284.051 116.769 284.217 117.058 284.382C117.657 284.692 118.184 285.157 118.639 285.777C119.094 286.376 119.321 287.141 119.321 288.071C119.321 288.774 119.187 289.445 118.918 290.086C118.649 290.727 118.236 291.295 117.678 291.791C117.12 292.266 116.407 292.649 115.539 292.938C114.692 293.227 113.679 293.372 112.501 293.372C110.786 293.372 108.998 293.103 107.138 292.566L107.882 287.978L108.378 287.606C108.771 287.916 109.184 288.195 109.618 288.443C110.073 288.691 110.517 288.908 110.951 289.094C111.385 289.259 111.798 289.394 112.191 289.497C112.604 289.58 112.966 289.621 113.276 289.621C113.875 289.621 114.175 289.414 114.175 289.001C114.175 288.732 114.01 288.505 113.679 288.319C113.369 288.112 112.852 287.885 112.129 287.637C111.674 287.472 111.251 287.306 110.858 287.141C110.486 286.976 110.145 286.81 109.835 286.645C109.236 286.335 108.709 285.88 108.254 285.281C107.82 284.661 107.603 283.876 107.603 282.925C107.603 282.16 107.748 281.458 108.037 280.817C108.347 280.156 108.791 279.587 109.37 279.112C109.949 278.637 110.651 278.265 111.478 277.996C112.325 277.727 113.276 277.593 114.33 277.593C115.921 277.593 117.492 277.851 119.042 278.368L118.267 282.677ZM130.979 283.049L130.514 283.266C129.46 282.811 128.654 282.584 128.096 282.584C126.794 282.584 126.143 283.411 126.143 285.064C126.143 286.263 126.329 287.141 126.701 287.699C127.073 288.257 127.662 288.536 128.468 288.536C129.171 288.536 130.08 288.371 131.196 288.04L131.599 288.412L130.979 292.969C129.904 293.238 128.571 293.372 126.98 293.372C124.81 293.372 123.136 292.721 121.958 291.419C120.78 290.096 120.191 288.195 120.191 285.715C120.191 283.111 120.873 281.096 122.237 279.67C123.622 278.244 125.564 277.531 128.065 277.531C129.532 277.531 130.824 277.789 131.94 278.306L130.979 283.049ZM133.257 293L133.536 286.924L133.319 278.275L139.24 277.872V280.662H139.519C140.428 278.823 141.648 277.903 143.177 277.903C143.322 277.903 143.456 277.913 143.58 277.934C143.704 277.934 143.818 277.944 143.921 277.965V283.545L143.332 283.731C143.043 283.566 142.66 283.483 142.185 283.483C141.152 283.483 140.17 283.886 139.24 284.692V286.304L139.488 293H133.257ZM145.185 293L145.464 286.924L145.247 278.275L151.447 277.872L151.168 286.304L151.416 293H145.185ZM151.509 272.788C151.509 273.801 151.219 274.607 150.641 275.206C150.062 275.805 149.277 276.105 148.285 276.105C146.28 276.105 145.278 275.092 145.278 273.067C145.278 272.054 145.567 271.248 146.146 270.649C146.745 270.05 147.541 269.75 148.533 269.75C149.483 269.75 150.217 270.019 150.734 270.556C151.25 271.093 151.509 271.837 151.509 272.788ZM169.001 285.095C169.001 287.782 168.319 289.838 166.955 291.264C165.591 292.669 163.7 293.372 161.282 293.372C160.827 293.372 160.373 293.341 159.918 293.279L160.042 298.921H153.842L154.09 286.924L153.873 278.275L159.794 277.872V280.104H160.011C160.92 279.029 161.943 278.234 163.08 277.717C164.961 277.717 166.418 278.358 167.451 279.639C168.484 280.92 169.001 282.739 169.001 285.095ZM163.173 286.056C163.173 284.878 163.008 284.01 162.677 283.452C162.346 282.894 161.799 282.615 161.034 282.615C160.538 282.615 160.125 282.749 159.794 283.018V286.304L159.856 289.404C160.311 289.507 160.672 289.559 160.941 289.559C161.685 289.559 162.243 289.301 162.615 288.784C162.987 288.267 163.173 287.358 163.173 286.056ZM180.719 288.567L180.13 292.008C179.138 292.607 178.011 293.01 176.751 293.217C175.056 293.217 173.733 292.845 172.783 292.101C171.832 291.336 171.357 290.303 171.357 289.001L171.543 285.684L171.512 281.685H169.528L169.373 281.375L169.621 278.089H171.512L171.481 275.361L177.247 273.842L177.65 274.183L177.495 278.089H180.595L180.781 278.399L180.502 281.685H177.34L177.154 287.079C177.154 287.596 177.247 287.957 177.433 288.164C177.619 288.371 177.939 288.474 178.394 288.474C178.993 288.474 179.634 288.34 180.316 288.071L180.719 288.567Z" fill="#B45309"/>
<path fill-rule="evenodd" clip-rule="evenodd" d="M191.882 106.16C210.69 107.705 222.013 125.414 236.08 138.004C251.62 151.911 275.242 161.442 276.893 182.24C278.582 203.517 260.014 220.356 243.709 234.112C229.007 246.517 211.107 253.534 191.882 253.966C172.152 254.409 151.447 250.64 137.673 236.495C124.028 222.482 121.651 201.803 122.038 182.24C122.416 163.156 126.878 144.152 139.782 130.096C153.222 115.456 172.083 104.535 191.882 106.16Z" fill="#444444"/>
<path d="M145.919 198.803L155.791 192.828C157.696 196.205 159.428 199.062 163.584 199.062C167.567 199.062 170.079 197.504 170.079 191.443V150.225H182.202V191.614C182.202 204.17 174.842 209.886 164.103 209.886C154.406 209.886 148.777 204.863 145.919 198.802" fill="white"/>
<path d="M188.787 197.504L198.657 191.789C201.256 196.032 204.633 199.149 210.607 199.149C215.631 199.149 218.834 196.638 218.834 193.174C218.834 189.018 215.543 187.545 210.001 185.122L206.971 183.822C198.225 180.099 192.423 175.423 192.423 165.551C192.423 156.459 199.351 149.531 210.175 149.531C217.882 149.531 223.424 152.216 227.407 159.23L217.967 165.292C215.889 161.569 213.638 160.097 210.174 160.097C206.624 160.097 204.372 162.348 204.372 165.292C204.372 168.929 206.624 170.402 211.819 172.653L214.85 173.952C225.155 178.368 230.956 182.871 230.956 193.001C230.956 203.913 222.384 209.887 210.867 209.887C199.61 209.887 192.336 204.518 188.786 197.504" fill="white"/>
</g>
<defs>
<clipPath id="clip0">
<rect width="400" height="400" rx="8" fill="white"/>
</clipPath>
</defs>
</svg>
