<svg width="400" height="400" viewBox="0 0 400 400" fill="none" xmlns="http://www.w3.org/2000/svg">
<g clip-path="url(#clip0)">
<rect width="400" height="400" rx="8" fill="#EBF4FD"/>
<path d="M228.079 291C227.379 291 226.719 290.87 226.099 290.61C225.479 290.33 224.969 289.79 224.569 288.99C224.369 289.25 224.169 289.48 223.969 289.68C223.789 289.86 223.609 290 223.429 290.1C222.669 290.48 221.759 290.73 220.699 290.85C219.659 290.95 218.419 291 216.979 291H216.079C215.019 291 214.219 290.97 213.679 290.91C213.139 290.85 212.729 290.75 212.449 290.61C212.429 291.07 212.379 291.52 212.299 291.96C212.219 292.4 212.129 292.8 212.029 293.16C211.949 293.54 211.859 293.86 211.759 294.12C211.679 294.38 211.619 294.54 211.579 294.6C211.319 295.06 210.879 295.49 210.259 295.89C209.639 296.31 208.909 296.68 208.069 297C207.229 297.32 206.319 297.57 205.339 297.75C204.379 297.95 203.409 298.05 202.429 298.05C199.949 298.05 198.129 297.51 196.969 296.43C195.809 295.37 195.229 293.66 195.229 291.3C195.229 290.54 195.299 289.48 195.439 288.12C195.599 286.76 195.829 285.17 196.129 283.35L199.879 283.65L199.429 289.95C199.729 290.17 200.169 290.33 200.749 290.43C201.329 290.51 201.889 290.55 202.429 290.55C203.329 290.55 204.289 290.5 205.309 290.4C206.349 290.28 207.289 290.03 208.129 289.65C208.049 289.21 207.929 288.67 207.769 288.03C207.609 287.37 207.429 286.69 207.229 285.99C207.029 285.29 206.809 284.59 206.569 283.89C206.329 283.19 206.099 282.56 205.879 282L210.379 279.15L211.129 279.39C211.289 280.11 211.449 280.74 211.609 281.28C211.769 281.82 211.899 282.26 211.999 282.6C213.419 281.34 214.649 280.27 215.689 279.39C216.749 278.49 217.639 277.76 218.359 277.2C219.099 276.62 219.709 276.2 220.189 275.94C220.669 275.68 221.049 275.55 221.329 275.55C222.049 275.55 222.719 275.75 223.339 276.15C223.979 276.55 224.539 277.07 225.019 277.71C225.499 278.35 225.879 279.09 226.159 279.93C226.439 280.75 226.579 281.59 226.579 282.45C226.579 282.61 226.569 282.76 226.549 282.9C226.549 283.04 226.539 283.19 226.519 283.35C226.739 283.43 226.969 283.48 227.209 283.5C227.469 283.5 227.759 283.5 228.079 283.5V291ZM219.979 281.25C219.759 281.25 219.309 281.45 218.629 281.85C217.969 282.25 216.999 282.9 215.719 283.8H218.479C219.599 283.8 220.429 283.78 220.969 283.74C221.509 283.7 221.929 283.57 222.229 283.35C222.009 282.83 221.689 282.35 221.269 281.91C220.849 281.47 220.419 281.25 219.979 281.25ZM250.883 291C250.183 291 249.523 290.87 248.903 290.61C248.283 290.33 247.773 289.79 247.373 288.99C247.173 289.25 246.973 289.48 246.773 289.68C246.593 289.86 246.413 290 246.233 290.1C245.473 290.48 244.563 290.73 243.503 290.85C242.463 290.95 241.223 291 239.783 291H238.283C237.323 291 236.503 290.97 235.823 290.91C235.163 290.85 234.593 290.74 234.113 290.58C233.633 290.42 233.233 290.22 232.913 289.98C232.593 289.72 232.313 289.39 232.073 288.99C231.793 289.47 231.543 289.82 231.323 290.04C231.103 290.26 230.873 290.43 230.633 290.55C230.033 290.85 229.183 291 228.083 291C227.703 291 227.463 290.7 227.363 290.1C227.243 289.48 227.183 288.53 227.183 287.25C227.183 285.97 227.243 285.03 227.363 284.43C227.463 283.81 227.703 283.5 228.083 283.5C228.283 283.5 228.603 283.5 229.043 283.5C229.483 283.48 229.893 283.42 230.273 283.32L231.083 279.6H234.683V281.55C234.683 281.99 234.723 282.34 234.803 282.6C236.223 281.34 237.453 280.27 238.493 279.39C239.553 278.49 240.443 277.76 241.163 277.2C241.903 276.62 242.513 276.2 242.993 275.94C243.473 275.68 243.853 275.55 244.133 275.55C244.853 275.55 245.523 275.75 246.143 276.15C246.783 276.55 247.343 277.07 247.823 277.71C248.303 278.35 248.683 279.09 248.963 279.93C249.243 280.75 249.383 281.59 249.383 282.45C249.383 282.61 249.373 282.76 249.353 282.9C249.353 283.04 249.343 283.19 249.323 283.35C249.543 283.43 249.773 283.48 250.013 283.5C250.273 283.5 250.563 283.5 250.883 283.5V291ZM242.783 281.25C242.563 281.25 242.113 281.45 241.433 281.85C240.773 282.25 239.803 282.9 238.523 283.8H241.283C242.403 283.8 243.233 283.78 243.773 283.74C244.313 283.7 244.733 283.57 245.033 283.35C244.813 282.83 244.493 282.35 244.073 281.91C243.653 281.47 243.223 281.25 242.783 281.25ZM266.926 282.3C266.666 282.34 266.436 282.38 266.236 282.42C266.036 282.44 265.846 282.5 265.666 282.6C265.486 282.68 265.296 282.79 265.096 282.93C264.896 283.07 264.676 283.26 264.436 283.5H269.476V291H267.826C267.186 291 266.576 290.94 265.996 290.82C265.416 290.68 264.876 290.43 264.376 290.07C263.896 289.69 263.466 289.18 263.086 288.54C262.726 287.88 262.446 287.03 262.246 285.99C261.226 287.17 260.346 288.1 259.606 288.78C258.866 289.44 258.166 289.94 257.506 290.28C256.846 290.6 256.166 290.8 255.466 290.88C254.766 290.96 253.936 291 252.976 291H250.876C250.496 291 250.256 290.7 250.156 290.1C250.036 289.48 249.976 288.53 249.976 287.25C249.976 285.97 250.036 285.03 250.156 284.43C250.256 283.81 250.496 283.5 250.876 283.5H255.376C256.056 283.5 256.606 283.48 257.026 283.44C257.466 283.38 257.876 283.28 258.256 283.14C258.636 283 259.026 282.81 259.426 282.57C259.826 282.31 260.326 281.97 260.926 281.55C260.166 281.37 259.526 281.22 259.006 281.1C258.486 280.98 258.056 280.89 257.716 280.83C257.376 280.75 257.106 280.7 256.906 280.68C256.706 280.66 256.546 280.65 256.426 280.65C256.266 280.65 256.106 280.66 255.946 280.68C255.786 280.68 255.646 280.7 255.526 280.74V282.15L252.826 283.2L252.316 282.9C252.296 282.72 252.276 282.49 252.256 282.21C252.256 281.93 252.246 281.65 252.226 281.37C252.226 281.07 252.226 280.79 252.226 280.53C252.226 280.27 252.226 280.06 252.226 279.9C252.226 279.22 252.266 278.61 252.346 278.07C252.446 277.51 252.606 277.12 252.826 276.9C253.426 276.3 254.066 275.83 254.746 275.49C255.446 275.13 256.056 274.95 256.576 274.95C257.056 274.95 257.686 275.05 258.466 275.25C259.266 275.43 260.166 275.69 261.166 276.03C262.186 276.35 263.286 276.73 264.466 277.17C265.666 277.61 266.916 278.07 268.216 278.55L268.426 279.15L266.926 282.3ZM257.626 273.6L254.626 271.2L257.026 267.9H257.626L260.626 270.3L258.226 273.6H257.626ZM279.829 291C278.569 291 277.549 290.83 276.769 290.49C276.009 290.13 275.429 289.41 275.029 288.33C274.869 288.71 274.719 289.02 274.579 289.26C274.459 289.48 274.339 289.67 274.219 289.83C274.099 289.97 273.969 290.08 273.829 290.16C273.709 290.24 273.559 290.32 273.379 290.4C272.859 290.62 272.289 290.78 271.669 290.88C271.049 290.96 270.319 291 269.479 291C269.099 291 268.859 290.7 268.759 290.1C268.639 289.48 268.579 288.53 268.579 287.25C268.579 285.97 268.639 285.03 268.759 284.43C268.859 283.81 269.099 283.5 269.479 283.5C270.039 283.5 270.599 283.49 271.159 283.47C271.739 283.45 272.349 283.38 272.989 283.26L273.829 279H277.879V281.55C277.879 282.23 278.009 282.73 278.269 283.05C278.549 283.35 279.069 283.5 279.829 283.5V291ZM277.579 277.5L274.999 275.22L273.379 277.5H272.779L269.779 275.1L272.179 271.8H272.779L275.329 274.11L276.979 271.8H277.579L280.579 274.2L278.179 277.5H277.579ZM289.271 291C288.871 291 288.401 290.95 287.861 290.85C287.321 290.73 286.761 290.57 286.181 290.37C285.601 290.17 285.031 289.93 284.471 289.65C283.911 289.37 283.411 289.06 282.971 288.72C282.451 289.66 281.921 290.28 281.381 290.58C280.841 290.86 280.321 291 279.821 291C279.441 291 279.201 290.7 279.101 290.1C278.981 289.48 278.921 288.53 278.921 287.25C278.921 285.97 278.981 285.03 279.101 284.43C279.201 283.81 279.441 283.5 279.821 283.5C280.241 283.5 280.581 283.47 280.841 283.41C281.121 283.33 281.391 283.16 281.651 282.9C281.911 282.64 282.201 282.25 282.521 281.73C282.841 281.21 283.241 280.5 283.721 279.6C284.101 278.88 284.521 278.3 284.981 277.86C285.441 277.4 285.961 277.04 286.541 276.78C287.121 276.52 287.791 276.34 288.551 276.24C289.311 276.12 290.201 276.04 291.221 276L291.821 276.45C292.041 277.21 292.241 277.96 292.421 278.7C292.621 279.42 292.781 280.12 292.901 280.8C293.041 281.46 293.141 282.07 293.201 282.63C293.281 283.19 293.321 283.68 293.321 284.1C293.321 284.86 293.201 285.65 292.961 286.47C292.721 287.27 292.411 288.01 292.031 288.69C291.651 289.35 291.211 289.9 290.711 290.34C290.231 290.78 289.751 291 289.271 291ZM288.671 281.7C288.151 281.74 287.721 281.79 287.381 281.85C287.041 281.89 286.751 281.96 286.511 282.06C286.271 282.14 286.061 282.26 285.881 282.42C285.721 282.58 285.551 282.79 285.371 283.05C285.551 283.17 285.801 283.29 286.121 283.41C286.461 283.53 286.821 283.64 287.201 283.74C287.581 283.84 287.951 283.93 288.311 284.01C288.691 284.07 289.011 284.1 289.271 284.1C289.271 284.02 289.251 283.88 289.211 283.68C289.171 283.48 289.121 283.26 289.061 283.02C289.001 282.78 288.931 282.54 288.851 282.3C288.791 282.06 288.731 281.86 288.671 281.7ZM301.254 291C300.534 291 299.874 290.92 299.274 290.76C298.674 290.58 298.154 290.31 297.714 289.95C297.274 289.57 296.924 289.1 296.664 288.54C296.424 287.96 296.304 287.28 296.304 286.5C296.304 285.94 296.374 285.27 296.514 284.49C296.654 283.69 296.844 282.82 297.084 281.88C297.324 280.92 297.604 279.91 297.924 278.85C298.264 277.77 298.624 276.67 299.004 275.55L299.754 274.95C302.614 275.71 304.724 276.77 306.084 278.13C307.464 279.49 308.154 281.23 308.154 283.35C308.154 283.91 308.104 284.49 308.004 285.09C307.904 285.67 307.774 286.23 307.614 286.77C307.454 287.29 307.274 287.77 307.074 288.21C306.874 288.63 306.684 288.96 306.504 289.2C306.244 289.54 305.914 289.83 305.514 290.07C305.114 290.29 304.674 290.47 304.194 290.61C303.734 290.75 303.244 290.85 302.724 290.91C302.224 290.97 301.734 291 301.254 291ZM299.904 283.65C300.024 283.75 300.254 283.83 300.594 283.89C300.954 283.93 301.324 283.95 301.704 283.95C302.004 283.95 302.384 283.94 302.844 283.92C303.304 283.9 303.724 283.84 304.104 283.74C303.804 282.64 302.604 281.86 300.504 281.4L299.904 283.65ZM312.663 288.75C312.443 288.07 312.083 287.14 311.583 285.96C311.083 284.78 310.493 283.51 309.813 282.15L314.613 279L315.363 279.24C315.623 279.9 315.853 280.62 316.053 281.4C316.273 282.18 316.453 282.96 316.593 283.74C316.733 284.52 316.833 285.27 316.893 285.99C316.973 286.71 317.013 287.33 317.013 287.85C317.013 289.61 316.793 291.13 316.353 292.41C315.913 293.69 315.393 294.75 314.793 295.59C314.213 296.43 313.623 297.05 313.023 297.45C312.423 297.85 311.953 298.05 311.613 298.05C311.493 298.05 311.333 298.03 311.133 297.99C310.953 297.97 310.643 297.91 310.203 297.81C309.783 297.73 309.203 297.6 308.463 297.42C307.703 297.24 306.703 297 305.463 296.7V294C306.283 293.62 307.063 293.2 307.803 292.74C308.543 292.3 309.223 291.84 309.843 291.36C310.463 290.9 311.013 290.45 311.493 290.01C311.973 289.55 312.363 289.13 312.663 288.75ZM325.561 290.25C324.961 290.41 324.311 290.53 323.611 290.61C322.911 290.67 322.261 290.7 321.661 290.7C320.981 290.7 320.401 290.6 319.921 290.4C319.461 290.18 319.081 289.89 318.781 289.53C318.481 289.17 318.261 288.76 318.121 288.3C317.981 287.82 317.911 287.32 317.911 286.8C317.911 286.32 318.001 285.65 318.181 284.79C318.361 283.91 318.581 282.99 318.841 282.03C319.101 281.07 319.381 280.13 319.681 279.21C319.981 278.29 320.241 277.54 320.461 276.96L321.211 276.45C322.831 276.49 324.191 276.78 325.291 277.32C326.391 277.84 327.281 278.57 327.961 279.51C328.661 280.45 329.161 281.59 329.461 282.93C329.761 284.27 329.911 285.76 329.911 287.4C329.911 289.46 329.671 291.17 329.191 292.53C328.731 293.91 328.191 295 327.571 295.8C326.971 296.62 326.361 297.2 325.741 297.54C325.141 297.88 324.701 298.05 324.421 298.05C324.321 298.05 324.151 298.04 323.911 298.02C323.671 298.02 323.281 297.98 322.741 297.9C322.221 297.82 321.521 297.7 320.641 297.54C319.761 297.38 318.651 297.15 317.311 296.85V294C317.991 293.82 318.711 293.61 319.471 293.37C320.231 293.15 320.981 292.9 321.721 292.62C322.481 292.36 323.201 292.07 323.881 291.75C324.581 291.43 325.191 291.08 325.711 290.7L325.561 290.25ZM325.411 284.01C325.111 283.37 324.701 282.88 324.181 282.54C323.681 282.18 322.941 282 321.961 282L321.361 283.8C321.581 283.96 322.231 284.04 323.311 284.04C323.491 284.04 323.791 284.04 324.211 284.04C324.631 284.04 325.031 284.03 325.411 284.01ZM336.355 291C334.615 291 333.305 290.64 332.425 289.92C331.545 289.18 331.105 287.94 331.105 286.2C331.105 285.82 331.125 285.37 331.165 284.85C331.205 284.33 331.255 283.84 331.315 283.38C331.395 282.84 331.475 282.28 331.555 281.7L335.155 281.85V283.35C335.315 283.43 335.605 283.48 336.025 283.5C336.445 283.5 336.805 283.5 337.105 283.5C337.605 283.5 338.115 283.5 338.635 283.5C339.155 283.48 339.645 283.43 340.105 283.35C339.825 282.65 339.285 281.97 338.485 281.31C337.685 280.65 336.675 280.08 335.455 279.6L336.955 274.35L337.555 273.9C338.675 274.16 339.655 274.6 340.495 275.22C341.355 275.82 342.065 276.53 342.625 277.35C343.185 278.17 343.605 279.07 343.885 280.05C344.165 281.03 344.305 282.03 344.305 283.05C344.305 283.77 344.245 284.45 344.125 285.09C344.005 285.73 343.855 286.32 343.675 286.86C343.515 287.38 343.335 287.83 343.135 288.21C342.955 288.59 342.795 288.87 342.655 289.05C342.075 289.81 341.275 290.33 340.255 290.61C339.235 290.87 337.935 291 336.355 291Z" fill="#444444"/>
<path d="M82.6237 295L82.9237 289.12L82.6237 275.02L92.1037 274.99C94.3437 274.99 96.0737 275.52 97.2937 276.58C98.5137 277.64 99.1237 279.17 99.1237 281.17C99.1237 282.33 98.8237 283.43 98.2237 284.47C97.6437 285.49 96.8337 286.37 95.7937 287.11C96.5337 288.27 97.2737 289.39 98.0137 290.47C98.7537 291.53 99.4937 292.56 100.234 293.56L100.144 294.22C98.0037 294.86 95.9337 295.24 93.9337 295.36L93.3337 294.88C92.6737 293.46 92.1237 292.27 91.6837 291.31C91.2437 290.33 90.9137 289.57 90.6937 289.03H88.6237L88.8337 295H82.6237ZM88.8037 279.37L88.6837 284.53L90.9337 284.65C91.5137 284.39 91.9337 284.03 92.1937 283.57C92.4537 283.11 92.5837 282.51 92.5837 281.77C92.5837 280.93 92.3737 280.32 91.9537 279.94C91.5537 279.54 90.8737 279.32 89.9137 279.28L88.8037 279.37ZM106.275 288.97C106.435 289.71 106.775 290.25 107.295 290.59C107.835 290.91 108.595 291.07 109.575 291.07C110.895 291.07 112.275 290.82 113.715 290.32L114.135 290.65L113.235 294.73C111.815 295.15 110.355 295.36 108.855 295.36C106.275 295.36 104.265 294.69 102.825 293.35C101.405 292.01 100.695 290.13 100.695 287.71C100.695 286.51 100.875 285.44 101.235 284.5C101.595 283.56 102.105 282.76 102.765 282.1C103.425 281.44 104.225 280.94 105.165 280.6C106.105 280.26 107.165 280.09 108.345 280.09C110.445 280.09 112.035 280.63 113.115 281.71C114.215 282.77 114.765 284.24 114.765 286.12C114.765 286.8 114.705 287.47 114.585 288.13L113.925 288.91L106.275 288.97ZM108.285 283.9C107.145 283.9 106.455 284.64 106.215 286.12L109.605 285.94L109.665 285.55C109.665 284.45 109.205 283.9 108.285 283.9ZM129.4 284.53C129.4 284.73 129.39 285.1 129.37 285.64C129.35 286.18 129.32 286.9 129.28 287.8C129.24 288.58 129.21 289.19 129.19 289.63C129.17 290.07 129.16 290.34 129.16 290.44C129.16 290.86 129.31 291.07 129.61 291.07C129.73 291.07 129.9 291.04 130.12 290.98L130.51 291.28L129.97 294.37C129.23 294.89 128.27 295.2 127.09 295.3C125.85 295.22 124.97 294.49 124.45 293.11H124.21C123.29 294.17 122.26 294.91 121.12 295.33C119.56 295.31 118.31 294.88 117.37 294.04C116.43 293.2 115.96 292.03 115.96 290.53C115.96 288.25 117.15 286.94 119.53 286.6L123.91 286V285.64C123.91 285.1 123.8 284.72 123.58 284.5C123.38 284.26 123.01 284.14 122.47 284.14C121.31 284.14 119.81 284.64 117.97 285.64L117.61 285.4L116.95 281.59C118.95 280.55 121.13 280.03 123.49 280.03C125.37 280.03 126.82 280.42 127.84 281.2C128.88 281.98 129.4 283.09 129.4 284.53ZM121.33 289.99C121.33 290.81 121.71 291.22 122.47 291.22C122.97 291.22 123.45 291.06 123.91 290.74V288.64L122.14 288.88C121.6 288.98 121.33 289.35 121.33 289.99ZM141.897 285.37L141.447 285.58C140.427 285.14 139.647 284.92 139.107 284.92C137.847 284.92 137.217 285.72 137.217 287.32C137.217 288.48 137.397 289.33 137.757 289.87C138.117 290.41 138.687 290.68 139.467 290.68C140.147 290.68 141.027 290.52 142.107 290.2L142.497 290.56L141.897 294.97C140.857 295.23 139.567 295.36 138.027 295.36C135.927 295.36 134.307 294.73 133.167 293.47C132.027 292.19 131.457 290.35 131.457 287.95C131.457 285.43 132.117 283.48 133.437 282.1C134.777 280.72 136.657 280.03 139.077 280.03C140.497 280.03 141.747 280.28 142.827 280.78L141.897 285.37ZM153.822 290.71L153.252 294.04C152.292 294.62 151.202 295.01 149.982 295.21C148.342 295.21 147.062 294.85 146.142 294.13C145.222 293.39 144.762 292.39 144.762 291.13L144.942 287.92L144.912 284.05H142.992L142.842 283.75L143.082 280.57H144.912L144.882 277.93L150.462 276.46L150.852 276.79L150.702 280.57H153.702L153.882 280.87L153.612 284.05H150.552L150.372 289.27C150.372 289.77 150.462 290.12 150.642 290.32C150.822 290.52 151.132 290.62 151.572 290.62C152.152 290.62 152.772 290.49 153.432 290.23L153.822 290.71ZM158.294 295C157.814 295 157.364 294.91 156.944 294.73C156.544 294.55 156.184 294.3 155.864 293.98C155.544 293.66 155.294 293.3 155.114 292.9C154.934 292.48 154.844 292.03 154.844 291.55C154.844 291.07 154.934 290.63 155.114 290.23C155.294 289.81 155.544 289.44 155.864 289.12C156.184 288.8 156.544 288.55 156.944 288.37C157.364 288.19 157.814 288.1 158.294 288.1C158.774 288.1 159.214 288.19 159.614 288.37C160.034 288.55 160.404 288.8 160.724 289.12C161.044 289.44 161.294 289.81 161.474 290.23C161.654 290.63 161.744 291.07 161.744 291.55C161.744 292.03 161.654 292.48 161.474 292.9C161.294 293.3 161.044 293.66 160.724 293.98C160.404 294.3 160.034 294.55 159.614 294.73C159.214 294.91 158.774 295 158.294 295ZM170.302 275.44C170.302 276.42 170.022 277.2 169.462 277.78C168.902 278.36 168.142 278.65 167.182 278.65C165.242 278.65 164.272 277.67 164.272 275.71C164.272 274.73 164.552 273.95 165.112 273.37C165.672 272.79 166.442 272.5 167.422 272.5C168.322 272.5 169.022 272.76 169.522 273.28C170.042 273.8 170.302 274.52 170.302 275.44ZM170.362 288.52L170.572 293.92C170.572 295.56 170.092 296.96 169.132 298.12C168.192 299.3 166.722 300.29 164.722 301.09L162.712 298.42V297.94C164.132 297.18 164.842 295.88 164.842 294.04V289.12L164.722 284.05H162.742L162.442 283.72L162.682 280.57H164.872L170.482 280.3L170.632 280.42L170.362 288.52ZM182.945 285.01L182.255 285.25C181.555 284.81 180.845 284.46 180.125 284.2C179.405 283.94 178.835 283.81 178.415 283.81C177.875 283.81 177.605 284 177.605 284.38C177.605 284.64 177.755 284.87 178.055 285.07C178.375 285.25 178.885 285.46 179.585 285.7C180.045 285.86 180.455 286.02 180.815 286.18C181.175 286.34 181.495 286.5 181.775 286.66C182.355 286.96 182.865 287.41 183.305 288.01C183.745 288.59 183.965 289.33 183.965 290.23C183.965 290.91 183.835 291.56 183.575 292.18C183.315 292.8 182.915 293.35 182.375 293.83C181.835 294.29 181.145 294.66 180.305 294.94C179.485 295.22 178.505 295.36 177.365 295.36C175.705 295.36 173.975 295.1 172.175 294.58L172.895 290.14L173.375 289.78C173.755 290.08 174.155 290.35 174.575 290.59C175.015 290.83 175.445 291.04 175.865 291.22C176.285 291.38 176.685 291.51 177.065 291.61C177.465 291.69 177.815 291.73 178.115 291.73C178.695 291.73 178.985 291.53 178.985 291.13C178.985 290.87 178.825 290.65 178.505 290.47C178.205 290.27 177.705 290.05 177.005 289.81C176.565 289.65 176.155 289.49 175.775 289.33C175.415 289.17 175.085 289.01 174.785 288.85C174.205 288.55 173.695 288.11 173.255 287.53C172.835 286.93 172.625 286.17 172.625 285.25C172.625 284.51 172.765 283.83 173.045 283.21C173.345 282.57 173.775 282.02 174.335 281.56C174.895 281.1 175.575 280.74 176.375 280.48C177.195 280.22 178.115 280.09 179.135 280.09C180.675 280.09 182.195 280.34 183.695 280.84L182.945 285.01Z" fill="#16599C"/>
<path fill-rule="evenodd" clip-rule="evenodd" d="M194.882 104.16C213.69 105.705 225.013 123.414 239.08 136.004C254.62 149.911 278.242 159.442 279.893 180.24C281.582 201.517 263.014 218.356 246.709 232.112C232.007 244.517 214.107 251.534 194.882 251.966C175.152 252.409 154.447 248.64 140.673 234.495C127.028 220.482 124.651 199.803 125.038 180.24C125.416 161.156 129.878 142.152 142.782 128.096C156.222 113.456 175.083 102.535 194.882 104.16Z" fill="#444444"/>
<path d="M229.197 161.998C227.952 161.567 226.696 161.169 225.431 160.802C225.644 159.927 225.84 159.062 226.013 158.213C228.864 144.268 227 133.033 220.634 129.335C214.531 125.788 204.549 129.486 194.468 138.327C193.474 139.2 192.502 140.098 191.554 141.02C190.919 140.407 190.273 139.805 189.616 139.216C179.05 129.763 168.46 125.779 162.101 129.489C156.002 133.046 154.197 143.607 156.763 156.823C157.019 158.132 157.307 159.434 157.628 160.729C156.129 161.158 154.682 161.615 153.298 162.101C140.911 166.453 133 173.273 133 180.347C133 187.653 141.493 194.982 154.395 199.425C155.441 199.784 156.495 200.116 157.558 200.422C157.213 201.816 156.906 203.219 156.639 204.631C154.192 217.617 156.103 227.929 162.185 231.464C168.466 235.114 179.009 231.362 189.274 222.32C190.107 221.585 190.921 220.829 191.716 220.053C192.743 221.051 193.798 222.021 194.878 222.96C204.822 231.582 214.643 235.064 220.719 231.52C226.994 227.859 229.034 216.782 226.386 203.304C226.178 202.248 225.944 201.198 225.685 200.153C226.425 199.932 227.152 199.705 227.86 199.468C241.273 194.99 250 187.751 250 180.347C250 173.247 241.834 166.381 229.197 161.998V161.998ZM226.288 194.688C225.648 194.901 224.992 195.107 224.323 195.307C222.842 190.584 220.844 185.561 218.399 180.371C220.732 175.306 222.654 170.347 224.093 165.654C225.29 166.003 226.451 166.371 227.571 166.76C238.398 170.516 245.002 176.068 245.002 180.347C245.002 184.904 237.869 190.821 226.288 194.688V194.688ZM221.483 204.282C222.654 210.242 222.821 215.63 222.045 219.842C221.349 223.627 219.947 226.151 218.214 227.161C214.528 229.312 206.642 226.517 198.138 219.143C197.133 218.269 196.152 217.368 195.196 216.439C198.493 212.806 201.788 208.583 205.004 203.892C210.66 203.386 216.004 202.559 220.85 201.43C221.088 202.401 221.3 203.352 221.483 204.282V204.282ZM172.888 226.79C169.286 228.071 166.416 228.108 164.682 227.101C160.991 224.956 159.457 216.676 161.55 205.57C161.799 204.258 162.083 202.953 162.404 201.656C167.196 202.724 172.501 203.493 178.171 203.956C181.408 208.546 184.798 212.765 188.214 216.459C187.488 217.167 186.745 217.857 185.985 218.528C181.446 222.526 176.897 225.363 172.888 226.79V226.79ZM156.012 194.66C150.306 192.695 145.595 190.141 142.365 187.354C139.463 184.851 137.999 182.364 137.999 180.347C137.999 176.054 144.35 170.578 154.943 166.857C156.229 166.406 157.575 165.98 158.971 165.58C160.435 170.378 162.356 175.396 164.673 180.47C162.325 185.618 160.378 190.716 158.899 195.571C157.929 195.291 156.966 194.987 156.012 194.66V194.66ZM161.669 155.856C159.47 144.533 160.93 135.991 164.605 133.848C168.519 131.564 177.174 134.82 186.297 142.982C186.892 143.516 187.477 144.06 188.053 144.615C184.653 148.293 181.294 152.481 178.086 157.043C172.583 157.557 167.316 158.383 162.473 159.488C162.175 158.285 161.906 157.074 161.669 155.856V155.856ZM212.137 168.413C210.993 166.423 209.807 164.457 208.579 162.517C212.312 162.993 215.889 163.624 219.248 164.396C218.24 167.653 216.983 171.058 215.503 174.549C214.422 172.481 213.3 170.436 212.137 168.413V168.413ZM191.556 148.214C193.861 150.731 196.17 153.541 198.441 156.589C193.835 156.37 189.22 156.369 184.613 156.587C186.886 153.566 189.215 150.76 191.556 148.214ZM170.843 168.448C169.695 170.454 168.594 172.487 167.54 174.544C166.085 171.066 164.84 167.646 163.823 164.343C167.161 163.59 170.721 162.975 174.43 162.508C173.188 164.459 171.992 166.44 170.843 168.447V168.448ZM174.536 198.544C170.704 198.113 167.091 197.53 163.754 196.797C164.787 193.436 166.059 189.943 167.546 186.39C168.604 188.449 169.71 190.483 170.863 192.49C172.048 194.553 173.276 196.574 174.536 198.544ZM191.694 212.834C189.325 210.259 186.962 207.41 184.655 204.346C186.895 204.434 189.179 204.479 191.5 204.479C193.885 204.479 196.242 204.425 198.563 204.321C196.284 207.441 193.984 210.294 191.694 212.834ZM215.55 186.208C217.114 189.8 218.432 193.275 219.479 196.579C216.087 197.359 212.424 197.987 208.565 198.454C209.802 196.479 210.999 194.479 212.157 192.455C213.334 190.398 214.465 188.316 215.55 186.208V186.208ZM207.827 189.939C206.055 193.041 204.183 196.085 202.215 199.064C198.649 199.319 195.075 199.445 191.5 199.443C187.859 199.443 184.317 199.329 180.907 199.106C178.887 196.133 176.979 193.085 175.188 189.967H175.189C173.406 186.865 171.741 183.696 170.196 180.467C171.737 177.238 173.397 174.067 175.173 170.963L175.173 170.964C176.949 167.859 178.841 164.823 180.846 161.863C184.326 161.598 187.894 161.46 191.5 161.46H191.5C195.122 161.46 198.695 161.599 202.174 161.867C204.158 164.822 206.038 167.847 207.811 170.937C209.594 174.034 211.276 177.188 212.855 180.396C211.292 183.636 209.615 186.819 207.827 189.939V189.939ZM218.138 133.698C222.056 135.974 223.579 145.156 221.118 157.196C220.961 157.965 220.784 158.747 220.592 159.54C215.738 158.411 210.467 157.572 204.948 157.05C201.733 152.437 198.402 148.243 195.058 144.612C195.934 143.761 196.832 142.932 197.749 142.125C206.387 134.551 214.46 131.56 218.138 133.698V133.698ZM191.5 169.819C197.27 169.819 201.948 174.533 201.948 180.347C201.948 186.161 197.27 190.875 191.5 190.875C185.73 190.875 181.052 186.161 181.052 180.347C181.052 174.533 185.73 169.819 191.5 169.819V169.819Z" fill="#00D8FF"/>
</g>
<defs>
<clipPath id="clip0">
<rect width="400" height="400" rx="8" fill="white"/>
</clipPath>
</defs>
</svg>
